<?xml version="1.0" encoding="iso-8859-1"?>
<!-- Generator: Adobe Illustrator 19.0.0, SVG Export Plug-In . SVG Version: 6.00 Build 0)  -->
<svg version="1.1" id="Layer_1" xmlns="http://www.w3.org/2000/svg" xmlns:xlink="http://www.w3.org/1999/xlink" x="0px" y="0px"
	 viewBox="0 0 512.001 512.001" style="enable-background:new 0 0 512.001 512.001;" xml:space="preserve">
<circle style="fill:#F9D026;" cx="255.996" cy="255.996" r="239.29"/>
<path style="fill:#E7C224;" d="M410.805,73.537C365.787,35.344,310.747,16.7,256,16.727v478.547
	c67.805-0.033,135.16-28.715,182.464-84.469C523.96,310.034,511.577,159.034,410.805,73.537z"/>
<path style="fill:#444242;" d="M255.578,512c-60.533,0.002-118.505-21.203-165.183-60.805
	C38.257,406.96,6.464,345.068,0.876,276.922c-5.588-68.147,15.696-134.39,59.931-186.527l0,0
	c44.235-52.139,106.127-83.93,174.271-89.518c68.149-5.588,134.39,15.695,186.528,59.929
	c52.139,44.235,83.93,106.126,89.519,174.272c5.588,68.147-15.696,134.39-59.931,186.527
	c-44.235,52.139-106.127,83.93-174.271,89.518C269.785,511.71,262.659,512,255.578,512z M256.169,33.506
	c-63.168,0-125.929,26.661-169.901,78.488c-38.467,45.337-56.972,102.94-52.113,162.198s32.503,113.075,77.841,151.541
	c41.763,35.432,92.936,52.755,143.836,52.76c63.168,0.006,125.929-26.661,169.901-78.488
	c38.467-45.337,56.972-102.94,52.113-162.198s-32.502-113.075-77.841-151.54C358.241,50.834,307.069,33.506,256.169,33.506z"/>
<path style="fill:#3A3839;" d="M511.124,235.078c-5.588-68.147-37.38-130.037-89.519-174.272
	C374.822,21.116,316.682-0.082,256.001,0.017V33.51c0.057,0,0.112-0.002,0.168-0.002c50.9,0,102.072,17.328,143.836,52.76
	c45.337,38.466,72.981,92.284,77.841,151.541c4.859,59.257-13.646,116.859-52.113,162.197
	C381.799,451.786,319.111,478.449,256,478.492v33.504c6.942-0.011,13.927-0.298,20.923-0.871
	c68.145-5.588,130.036-37.379,174.271-89.518C495.429,369.468,516.712,303.224,511.124,235.078z"/>
<g>
	<circle style="fill:#444242;" cx="255.996" cy="255.996" r="31.453"/>
	<path style="fill:#444242;" d="M282.856,209.486L347.661,97.24c-26.964-15.602-58.268-24.534-91.66-24.534
		s-64.696,8.934-91.66,24.534l64.798,112.234C245.545,200.002,266.11,199.793,282.856,209.486z"/>
	<path style="fill:#444242;" d="M202.289,256H72.68c-0.029,31.152,7.885,62.729,24.582,91.648s40.085,51.562,67.078,67.113
		l64.798-112.233C212.731,293.054,202.268,275.349,202.289,256z"/>
	<path style="fill:#444242;" d="M282.856,302.515l64.805,112.245c26.993-15.551,50.382-38.194,67.078-67.113
		S439.35,287.152,439.322,256H309.725C309.724,274.945,299.623,292.859,282.856,302.515z"/>
</g>
<g>
	<path style="fill:#3A3839;" d="M282.856,302.515l64.805,112.245c26.993-15.551,50.382-38.194,67.078-67.113
		S439.35,287.152,439.322,256H309.725C309.724,274.945,299.623,292.859,282.856,302.515z"/>
	<path style="fill:#3A3839;" d="M276.347,232.018c-5.917-5.02-13.151-7.465-20.346-7.461v62.887
		c8.912-0.004,17.764-3.769,23.982-11.096C291.219,263.102,289.591,243.256,276.347,232.018z"/>
	<path style="fill:#3A3839;" d="M347.661,97.24c-26.964-15.602-58.268-24.534-91.66-24.534l0,0v129.592
		c9.242-0.002,18.522,2.365,26.855,7.189L347.661,97.24z"/>
</g>
<g>
</g>
<g>
</g>
<g>
</g>
<g>
</g>
<g>
</g>
<g>
</g>
<g>
</g>
<g>
</g>
<g>
</g>
<g>
</g>
<g>
</g>
<g>
</g>
<g>
</g>
<g>
</g>
<g>
</g>
</svg>
