<?xml version="1.0" encoding="iso-8859-1"?>
<!-- Generator: Adobe Illustrator 19.0.0, SVG Export Plug-In . SVG Version: 6.00 Build 0)  -->
<svg version="1.1" id="Layer_1" xmlns="http://www.w3.org/2000/svg" xmlns:xlink="http://www.w3.org/1999/xlink" x="0px" y="0px"
	 viewBox="0 0 512 512" style="enable-background:new 0 0 512 512;" xml:space="preserve">
<path style="fill:#808080;" d="M464.163,52.201H256.746c-11.417,0-20.674,9.256-20.674,20.674v14.132
	c0,8.156-6.612,14.768-14.768,14.768h-1.314c-8.156,0-14.768-6.612-14.768-14.768V72.875c0-11.417-9.256-20.674-20.674-20.674
	h-42.67c-11.417,0-20.674,9.256-20.674,20.674v14.132c0,8.156-6.612,14.768-14.768,14.768l0,0c-8.156,0-14.768-6.612-14.768-14.768
	V72.875c0-11.417-9.256-20.674-20.674-20.674H51.307c-11.42,0-20.679-9.256-20.681-20.676l0,0
	c-0.002-11.419,9.252-20.676,20.671-20.676h412.866c11.419,0,20.676,9.257,20.676,20.676l0,0
	C484.839,42.944,475.583,52.201,464.163,52.201z"/>
<g>
	<polygon style="fill:#E6E6E6;" points="242.184,159.547 197.606,159.547 198.302,152.712 202.341,113.03 237.449,113.03 
		241.488,152.712 	"/>
	<polygon style="fill:#E6E6E6;" points="128.756,159.547 84.177,159.547 84.873,152.712 88.912,113.03 124.021,113.03 
		128.06,152.712 	"/>
	<polygon style="fill:#E6E6E6;" points="420.249,229.752 420.249,322.339 327.662,322.339 327.662,269.235 	"/>
	<polygon style="fill:#E6E6E6;" points="258.514,319.853 220.378,334.319 181.275,319.853 196.91,166.383 197.606,159.547 
		242.184,159.547 242.88,166.383 	"/>
	<polygon style="fill:#E6E6E6;" points="145.086,319.853 111.841,336.805 67.847,319.853 83.481,166.383 84.177,159.547 
		128.756,159.547 129.452,166.383 	"/>
</g>
<polygon style="fill:#C79175;" points="465.3,319.853 465.3,493.072 46.695,493.072 46.695,319.853 67.847,319.853 145.086,319.853 
	181.275,319.853 258.514,319.853 327.662,319.853 420.249,319.853 "/>
<g>
	<polygon style="fill:#FD6568;" points="242.88,166.383 196.91,166.383 198.302,152.712 241.488,152.712 	"/>
	<polygon style="fill:#FD6568;" points="129.452,166.383 83.481,166.383 84.873,152.712 128.06,152.712 	"/>
</g>
<g>
	<rect x="84.981" y="355.087" style="fill:#666666;" width="86.51" height="16.156"/>
	<rect x="84.981" y="398.386" style="fill:#666666;" width="86.51" height="16.156"/>
	<rect x="84.981" y="441.684" style="fill:#666666;" width="86.51" height="16.156"/>
	<rect x="212.751" y="355.087" style="fill:#666666;" width="86.51" height="16.156"/>
	<rect x="212.751" y="398.386" style="fill:#666666;" width="86.51" height="16.156"/>
	<rect x="212.751" y="441.684" style="fill:#666666;" width="86.51" height="16.156"/>
	<rect x="340.509" y="355.087" style="fill:#666666;" width="86.51" height="16.156"/>
	<rect x="340.509" y="398.386" style="fill:#666666;" width="86.51" height="16.156"/>
	<rect x="340.509" y="441.684" style="fill:#666666;" width="86.51" height="16.156"/>
</g>
<g>
	<path style="fill:#999999;" d="M463.696,103.285H286.473c-7.55,0-13.671-6.121-13.671-13.671c0-7.55,6.121-13.671,13.671-13.671
		h177.223c7.55,0,13.671,6.121,13.671,13.671C477.366,97.165,471.246,103.285,463.696,103.285z"/>
	<path style="fill:#999999;" d="M420.374,150.649H312.072c-6.521,0-11.806-5.286-11.806-11.806s5.286-11.806,11.806-11.806h108.302
		c6.521,0,11.806,5.286,11.806,11.806S426.895,150.649,420.374,150.649z"/>
</g>
<path style="fill:#B3B3B3;" d="M341.609,192.377h-57.106c-5.148,0-9.321-4.173-9.321-9.321s4.173-9.321,9.321-9.321h57.106
	c5.148,0,9.321,4.173,9.321,9.321S346.758,192.377,341.609,192.377z"/>
<rect y="484.995" style="fill:#666666;" width="512" height="16.156"/>
<g>
</g>
<g>
</g>
<g>
</g>
<g>
</g>
<g>
</g>
<g>
</g>
<g>
</g>
<g>
</g>
<g>
</g>
<g>
</g>
<g>
</g>
<g>
</g>
<g>
</g>
<g>
</g>
<g>
</g>
</svg>
