<?xml version="1.0" encoding="UTF-8" standalone="no"?>
<svg
   xmlns:dc="http://purl.org/dc/elements/1.1/"
   xmlns:cc="http://creativecommons.org/ns#"
   xmlns:rdf="http://www.w3.org/1999/02/22-rdf-syntax-ns#"
   xmlns:svg="http://www.w3.org/2000/svg"
   xmlns="http://www.w3.org/2000/svg"
   xmlns:xlink="http://www.w3.org/1999/xlink"
   xmlns:sodipodi="http://sodipodi.sourceforge.net/DTD/sodipodi-0.dtd"
   xmlns:inkscape="http://www.inkscape.org/namespaces/inkscape"
   width="600"
   height="506.83701"
   id="svg2"
   version="1.1"
   inkscape:version="0.48.3.1 r9886"
   sodipodi:docname="coal_mine_car.svg">
  <title
     id="title3911">coal mine car</title>
  <sodipodi:namedview
     pagecolor="#ffffff"
     bordercolor="#666666"
     borderopacity="1"
     objecttolerance="10"
     gridtolerance="10"
     guidetolerance="10"
     inkscape:pageopacity="0"
     inkscape:pageshadow="2"
     inkscape:window-width="1510"
     inkscape:window-height="866"
     id="namedview147"
     showgrid="false"
     inkscape:zoom="0.98901497"
     inkscape:cx="276.88819"
     inkscape:cy="221.18273"
     inkscape:window-x="0"
     inkscape:window-y="0"
     inkscape:window-maximized="0"
     inkscape:current-layer="svg2"
     fit-margin-top="0"
     fit-margin-left="0"
     fit-margin-right="0"
     fit-margin-bottom="0" />
  <defs
     id="defs4">
    <linearGradient
       id="linearGradient2338">
      <stop
         stop-color="#b1b1b1"
         id="stop2340"
         offset="0" />
      <stop
         stop-color="#e4e4e4"
         id="stop2342"
         offset="1" />
    </linearGradient>
    <linearGradient
       id="linearGradient2320">
      <stop
         stop-color="#6a3c1d"
         id="stop2322"
         offset="0" />
      <stop
         stop-color="#8f5127"
         id="stop2324"
         offset="1" />
    </linearGradient>
    <linearGradient
       id="linearGradient2954">
      <stop
         stop-color="#00a100"
         offset="0"
         id="stop2956" />
      <stop
         stop-color="#00f500"
         offset="1"
         id="stop2958" />
    </linearGradient>
    <linearGradient
       y2="-0.079590999"
       x2="0.49998099"
       y1="0.68926197"
       x1="0.32731301"
       id="linearGradient2408"
       xlink:href="#linearGradient2954" />
    <linearGradient
       y2="-0.18900999"
       x2="0.384868"
       y1="0.715119"
       x1="0.42434201"
       id="linearGradient2412"
       xlink:href="#linearGradient2954" />
    <linearGradient
       id="linearGradient3415">
      <stop
         stop-color="#1a1a1a"
         offset="0"
         id="stop3417"
         style="stop-color:#3d3d3d;stop-opacity:1;" />
      <stop
         stop-color="#2b2b2b"
         offset="1"
         id="stop3419"
         style="stop-color:#232323;stop-opacity:1;" />
    </linearGradient>
    <linearGradient
       y2="92.205132"
       x2="41.000183"
       y1="100.49766"
       x1="41.199078"
       id="linearGradient2842"
       xlink:href="#linearGradient2338"
       gradientTransform="scale(1.5219441,0.65705434)"
       gradientUnits="userSpaceOnUse" />
    <linearGradient
       y2="124.83467"
       x2="26.433603"
       y1="116.92934"
       x1="33.989132"
       id="linearGradient2846"
       xlink:href="#linearGradient2338"
       gradientTransform="scale(2.0089086,0.49778271)"
       gradientUnits="userSpaceOnUse" />
    <linearGradient
       y2="34.175117"
       x2="148.8782"
       y1="33.553745"
       x1="157.27463"
       id="linearGradient2850"
       xlink:href="#linearGradient2338"
       gradientTransform="scale(0.47896939,2.0878161)"
       gradientUnits="userSpaceOnUse" />
    <linearGradient
       y2="21.482332"
       x2="239.2963"
       y1="21.556366"
       x1="248.38925"
       id="linearGradient2854"
       xlink:href="#linearGradient2338"
       gradientTransform="scale(0.28534115,3.5045769)"
       gradientUnits="userSpaceOnUse" />
    <linearGradient
       y2="43.381031"
       x2="89.250877"
       y1="43.33456"
       x1="98.023056"
       id="linearGradient2860"
       xlink:href="#linearGradient2338"
       gradientTransform="scale(0.53732529,1.8610701)"
       gradientUnits="userSpaceOnUse" />
    <linearGradient
       y2="20.176182"
       x2="181.18401"
       y1="20.198271"
       x1="184.57063"
       id="linearGradient2864"
       xlink:href="#linearGradient2338"
       gradientTransform="scale(0.25537723,3.9157759)"
       gradientUnits="userSpaceOnUse" />
    <linearGradient
       id="linearGradient3392">
      <stop
         stop-color="#4a585b"
         offset="0"
         id="stop3394" />
      <stop
         stop-color="#5e7074"
         offset="1"
         id="stop3396" />
    </linearGradient>
    <linearGradient
       id="linearGradient3405">
      <stop
         stop-color="#4f3e2a"
         offset="0"
         id="stop3407" />
      <stop
         stop-color="#72593c"
         offset="1"
         id="stop3409" />
    </linearGradient>
    <linearGradient
       y2="73.190491"
       x2="76.585861"
       y1="60.838154"
       x1="70.657265"
       id="linearGradient3098"
       xlink:href="#linearGradient3392"
       gradientTransform="scale(0.88986856,1.1237615)"
       gradientUnits="userSpaceOnUse" />
    <linearGradient
       y2="42.835373"
       x2="96.395859"
       y1="39.754581"
       x1="96.282051"
       id="linearGradient3103"
       xlink:href="#linearGradient3392"
       gradientTransform="scale(0.56994709,1.7545488)"
       gradientUnits="userSpaceOnUse" />
    <linearGradient
       y2="95.083328"
       x2="65.298271"
       y1="94.589378"
       x1="67.524345"
       id="linearGradient3107"
       xlink:href="#linearGradient2320"
       gradientTransform="scale(0.8158819,1.2256676)"
       gradientUnits="userSpaceOnUse" />
    <linearGradient
       y2="94.715912"
       x2="72.165291"
       y1="94.219261"
       x1="74.379265"
       id="linearGradient3112"
       xlink:href="#linearGradient2320"
       gradientTransform="scale(0.82033905,1.2190082)"
       gradientUnits="userSpaceOnUse" />
    <linearGradient
       y2="93.319237"
       x2="79.661781"
       y1="92.825294"
       x1="81.887856"
       id="linearGradient3116"
       xlink:href="#linearGradient2320"
       gradientTransform="scale(0.81588178,1.2256678)"
       gradientUnits="userSpaceOnUse" />
    <linearGradient
       y2="91.766876"
       x2="90.68615"
       y1="91.272934"
       x1="92.912224"
       id="linearGradient3120"
       xlink:href="#linearGradient2320"
       gradientTransform="scale(0.81588195,1.2256675)"
       gradientUnits="userSpaceOnUse" />
    <linearGradient
       y2="99.322998"
       x2="80.325905"
       y1="98.794685"
       x1="82.407143"
       id="linearGradient3124"
       xlink:href="#linearGradient2320"
       gradientTransform="scale(0.87266122,1.1459201)"
       gradientUnits="userSpaceOnUse" />
    <linearGradient
       y2="133.32449"
       x2="66.469551"
       y1="132.60017"
       x1="67.987617"
       id="linearGradient3128"
       xlink:href="#linearGradient2320"
       gradientTransform="scale(1.1964024,0.8358392)"
       gradientUnits="userSpaceOnUse" />
    <linearGradient
       y2="90.754616"
       x2="103.65378"
       y1="90.256546"
       x1="105.86142"
       id="linearGradient3132"
       xlink:href="#linearGradient2320"
       gradientTransform="scale(0.82269714,1.2155141)"
       gradientUnits="userSpaceOnUse" />
    <linearGradient
       y2="94.942146"
       x2="105.57894"
       y1="94.414467"
       x1="107.66273"
       id="linearGradient3136"
       xlink:href="#linearGradient2320"
       gradientTransform="scale(0.87159067,1.1473276)"
       gradientUnits="userSpaceOnUse" />
    <linearGradient
       y2="162.78403"
       x2="65.084534"
       y1="161.87134"
       x1="66.289268"
       id="linearGradient3140"
       xlink:href="#linearGradient2320"
       gradientTransform="scale(1.5075613,0.66332295)"
       gradientUnits="userSpaceOnUse" />
    <linearGradient
       y2="86.063461"
       x2="129.28183"
       y1="85.576233"
       x1="131.53862"
       id="linearGradient3144"
       xlink:href="#linearGradient2320"
       gradientTransform="scale(0.80477858,1.2425778)"
       gradientUnits="userSpaceOnUse" />
    <linearGradient
       y2="98.397575"
       x2="118.40526"
       y1="97.835533"
       x1="120.3616"
       id="linearGradient3148"
       xlink:href="#linearGradient2320"
       gradientTransform="scale(0.92837368,1.0771525)"
       gradientUnits="userSpaceOnUse" />
    <linearGradient
       y2="110.65199"
       x2="109.97084"
       y1="110.01422"
       x1="111.69491"
       id="linearGradient3152"
       xlink:href="#linearGradient2320"
       gradientTransform="scale(1.0534488,0.94926303)"
       gradientUnits="userSpaceOnUse" />
    <linearGradient
       y2="165.52345"
       x2="43.359619"
       y1="164.42824"
       x1="43.257172"
       id="linearGradient3156"
       xlink:href="#linearGradient2320"
       gradientTransform="scale(1.6884561,0.59225704)"
       gradientUnits="userSpaceOnUse" />
    <linearGradient
       y2="144.82547"
       x2="54.433678"
       y1="143.89948"
       x1="54.312508"
       id="linearGradient3160"
       xlink:href="#linearGradient2320"
       gradientTransform="scale(1.4275742,0.70048901)"
       gradientUnits="userSpaceOnUse" />
    <linearGradient
       y2="156.46103"
       x2="43.74955"
       y1="155.3884"
       x1="43.644947"
       id="linearGradient3168"
       xlink:href="#linearGradient2320"
       gradientTransform="scale(1.6536386,0.60472705)"
       gradientUnits="userSpaceOnUse" />
    <linearGradient
       y2="148.63489"
       x2="43.628895"
       y1="147.58372"
       x1="43.522156"
       id="linearGradient3172"
       xlink:href="#linearGradient2320"
       gradientTransform="scale(1.6205478,0.6170753)"
       gradientUnits="userSpaceOnUse" />
    <linearGradient
       y2="147.92024"
       x2="40.554668"
       y1="146.76122"
       x1="40.451412"
       id="linearGradient3176"
       xlink:href="#linearGradient2320"
       gradientTransform="scale(1.6751496,0.59696162)"
       gradientUnits="userSpaceOnUse" />
    <linearGradient
       y2="150.74495"
       x2="37.803421"
       y1="149.53323"
       x1="37.704659"
       id="linearGradient3181"
       xlink:href="#linearGradient2320"
       gradientTransform="scale(1.7513072,0.57100205)"
       gradientUnits="userSpaceOnUse" />
    <linearGradient
       y2="145.16821"
       x2="37.058464"
       y1="144.03967"
       x1="36.946617"
       id="linearGradient3185"
       xlink:href="#linearGradient2320"
       gradientTransform="scale(1.7398367,0.57476657)"
       gradientUnits="userSpaceOnUse" />
    <linearGradient
       y2="128.20049"
       x2="40.085365"
       y1="127.17815"
       x1="39.961899"
       id="linearGradient3189"
       xlink:href="#linearGradient2320"
       gradientTransform="scale(1.5760958,0.63447921)"
       gradientUnits="userSpaceOnUse" />
    <linearGradient
       y2="117.66054"
       x2="39.119408"
       y1="116.42033"
       x1="38.942997"
       id="linearGradient3195"
       xlink:href="#linearGradient2320"
       gradientTransform="scale(1.4707567,0.67992211)"
       gradientUnits="userSpaceOnUse" />
    <linearGradient
       y2="105.08151"
       x2="41.071838"
       y1="104.26307"
       x1="40.94389"
       id="linearGradient3199"
       xlink:href="#linearGradient2320"
       gradientTransform="scale(1.3518831,0.73970894)"
       gradientUnits="userSpaceOnUse" />
    <linearGradient
       y2="100.41644"
       x2="41.58968"
       y1="99.618576"
       x1="41.458431"
       id="linearGradient3203"
       xlink:href="#linearGradient2320"
       gradientTransform="scale(1.3178945,0.75878608)"
       gradientUnits="userSpaceOnUse" />
    <linearGradient
       y2="214.31078"
       x2="35.020821"
       y1="212.79605"
       x1="34.931225"
       id="linearGradient3207"
       xlink:href="#linearGradient3415"
       gradientTransform="scale(1.9729815,0.50684712)"
       gradientUnits="userSpaceOnUse" />
    <linearGradient
       y2="263.34766"
       x2="32.038551"
       y1="260.64371"
       x1="31.939663"
       id="linearGradient3211"
       xlink:href="#linearGradient3415"
       gradientTransform="scale(2.2352607,0.4473751)"
       gradientUnits="userSpaceOnUse" />
    <linearGradient
       y2="62.694633"
       x2="86.562111"
       y1="62.015343"
       x1="90.294174"
       id="linearGradient3215"
       xlink:href="#linearGradient3415"
       gradientTransform="scale(0.6986608,1.4313097)"
       gradientUnits="userSpaceOnUse" />
    <linearGradient
       y2="102.76959"
       x2="83.921577"
       y1="103.34384"
       x1="85.207214"
       id="linearGradient3219"
       xlink:href="#linearGradient3415"
       gradientTransform="scale(0.92812916,1.0774362)"
       gradientUnits="userSpaceOnUse" />
    <linearGradient
       y2="83.826347"
       x2="72.526207"
       y1="83.156563"
       x1="73.412704"
       id="linearGradient3223"
       xlink:href="#linearGradient3415"
       gradientTransform="scale(0.94721166,1.0557303)"
       gradientUnits="userSpaceOnUse" />
    <linearGradient
       y2="89.647438"
       x2="56.786915"
       y1="79.570084"
       x1="60.816681"
       id="linearGradient3227"
       xlink:href="#linearGradient3405"
       gradientTransform="scale(1.0089572,0.99112227)"
       gradientUnits="userSpaceOnUse" />
    <linearGradient
       y2="83.837814"
       x2="119.78802"
       y1="72.89711"
       x1="115.95201"
       id="linearGradient3231"
       xlink:href="#linearGradient3392"
       gradientTransform="scale(0.78341845,1.276457)"
       gradientUnits="userSpaceOnUse" />
    <linearGradient
       y2="109.71613"
       x2="97.489487"
       y1="120.50196"
       x1="89.543953"
       id="linearGradient3235"
       xlink:href="#linearGradient3392"
       gradientTransform="scale(1.1847361,0.84406985)"
       gradientUnits="userSpaceOnUse" />
    <linearGradient
       y2="142.2433"
       x2="61.838066"
       y1="160.90939"
       x1="57.252552"
       id="linearGradient3239"
       xlink:href="#linearGradient3392"
       gradientTransform="scale(1.6962477,0.58953655)"
       gradientUnits="userSpaceOnUse" />
    <linearGradient
       y2="96.237091"
       x2="111.67893"
       y1="102.84623"
       x1="106.71746"
       id="linearGradient3243"
       xlink:href="#linearGradient3415"
       gradientTransform="scale(0.91746953,1.0899545)"
       gradientUnits="userSpaceOnUse" />
    <linearGradient
       y2="91.202301"
       x2="114.85343"
       y1="99.19873"
       x1="109.35489"
       id="linearGradient3247"
       xlink:href="#linearGradient3392"
       gradientTransform="scale(0.90019155,1.1108747)"
       gradientUnits="userSpaceOnUse" />
    <linearGradient
       y2="90.891708"
       x2="118.14765"
       y1="93.04995"
       x1="115.46534"
       id="linearGradient3251"
       xlink:href="#linearGradient3415"
       gradientTransform="scale(0.85676339,1.1671834)"
       gradientUnits="userSpaceOnUse" />
    <linearGradient
       y2="94.274933"
       x2="127.99611"
       y1="100.95184"
       x1="123.08501"
       id="linearGradient3259"
       xlink:href="#linearGradient3415"
       gradientTransform="scale(0.92688038,1.0788879)"
       gradientUnits="userSpaceOnUse" />
    <linearGradient
       y2="88.337914"
       x2="132.8219"
       y1="96.334343"
       x1="127.32335"
       id="linearGradient3261"
       xlink:href="#linearGradient3392"
       gradientTransform="scale(0.90019163,1.1108746)"
       gradientUnits="userSpaceOnUse" />
    <linearGradient
       y2="90.103279"
       x2="134.08"
       y1="92.308952"
       x1="131.45538"
       id="linearGradient3263"
       xlink:href="#linearGradient3415"
       gradientTransform="scale(0.87559406,1.1420818)"
       gradientUnits="userSpaceOnUse" />
    <linearGradient
       y2="85.040146"
       x2="106.64447"
       y1="86.14579"
       x1="103.93465"
       id="linearGradient3267"
       xlink:href="#linearGradient3392"
       gradientTransform="scale(0.84806278,1.179158)"
       gradientUnits="userSpaceOnUse" />
    <linearGradient
       y2="107.80172"
       x2="78.061584"
       y1="120.92758"
       x1="76.236259"
       id="linearGradient3271"
       xlink:href="#linearGradient3415"
       gradientTransform="scale(1.3318586,0.75083045)"
       gradientUnits="userSpaceOnUse" />
    <filter
       id="filter3963"
       color-interpolation-filters="sRGB">
      <feGaussianBlur
         id="feGaussianBlur3965"
         stdDeviation="0.452177" />
    </filter>
  </defs>
  <metadata
     id="metadata7">image/svg+xml<rdf:RDF>
  <cc:Work
     rdf:about="">
    <dc:format>image/svg+xml</dc:format>
    <dc:type
       rdf:resource="http://purl.org/dc/dcmitype/StillImage" />
    <dc:title>coal mine car</dc:title>
    <dc:date>02/23/2013</dc:date>
    <dc:creator>
      <cc:Agent>
        <dc:title>edited by Paul Sherman for WPClipart</dc:title>
      </cc:Agent>
    </dc:creator>
    <dc:rights>
      <cc:Agent>
        <dc:title>PD</dc:title>
      </cc:Agent>
    </dc:rights>
    <dc:publisher>
      <cc:Agent>
        <dc:title>WPClipart</dc:title>
      </cc:Agent>
    </dc:publisher>
    <dc:subject>
      <rdf:Bag>
        <rdf:li>coal</rdf:li>
        <rdf:li>car</rdf:li>
        <rdf:li>mine</rdf:li>
        <rdf:li>shaft</rdf:li>
        <rdf:li>track</rdf:li>
      </rdf:Bag>
    </dc:subject>
    <cc:license
       rdf:resource="http://creativecommons.org/licenses/publicdomain/" />
  </cc:Work>
  <cc:License
     rdf:about="http://creativecommons.org/licenses/publicdomain/">
    <cc:permits
       rdf:resource="http://creativecommons.org/ns#Reproduction" />
    <cc:permits
       rdf:resource="http://creativecommons.org/ns#Distribution" />
    <cc:permits
       rdf:resource="http://creativecommons.org/ns#DerivativeWorks" />
  </cc:License>
</rdf:RDF>
</metadata>
  <g
     id="g77"
     transform="matrix(5.0510072,0,0,5.0510072,-18.21682,-116.79343)">
    <title
       id="title79">Layer 1</title>
    <path
       id="path2406"
       d="m 5.55972,53.53397 8.1948,-7.216309 6.604759,-4.403172 c 0,0 7.950171,-4.525478 10.763309,-5.99321 2.813141,-1.46772 6.84938,-5.25934 6.84938,-5.25934 l 4.280861,-2.813139 8.439419,-3.79162 8.561722,3.66931 17.979626,9.907139 3.791626,4.647793 9.173264,9.050968 2.813141,3.547001 8.194793,7.338619 4.40317,5.748589 C 100.45787,80.795182 87.728554,80.861474 76.744347,83.866944 68.290139,93.36538 53.913681,97.962647 36.015,99.644982 28.955311,102.96248 23.21535,99.021538 17.423831,95.364121 13.099881,90.836808 6.570381,87.453133 10.574451,78.607598 7.104931,71.055703 0.238011,65.026772 5.559722,53.533971 z"
       inkscape:connector-curvature="0"
       style="fill:#bfbfbf;fill-rule:evenodd;stroke-width:1px" />
    <path
       id="path3225"
       d="m 53.93681,89.558678 -0.13258,-17.191536 1.988739,2.60746 14.142128,7.733978 1.370026,2.563263 -2.032936,0.66291 -9.457546,2.077126 -5.877831,1.546799 z"
       style="fill:url(#linearGradient3227);fill-rule:evenodd;stroke-width:1px"
       inkscape:connector-curvature="0" />
    <path
       id="path2410"
       d="m 80.291351,41.058319 3.913925,-2.323898 6.48246,-5.748592 8.806343,4.158562 11.007931,4.15855 3.42469,7.46093 3.547,5.38166 c -2.13243,5.100868 -2.33564,11.467796 -14.43262,10.029442 L 95.213218,56.83635 92.27777,53.90091 89.831557,50.59853 C 85.949996,47.618881 81.955992,44.671372 80.29135,41.058319 z"
       inkscape:connector-curvature="0"
       style="fill:#7f7f7f;fill-rule:evenodd;stroke-width:1px" />
    <path
       id="path2840"
       d="m 47.135139,63.95676 28.756752,-6.572971 0.172981,6.010799 -28.540543,6.486492 c 0,0 -0.302711,-0.12973 -0.345951,-0.302704 -0.04324,-0.172974 -0.08649,-5.708107 -0.04324,-5.621616 z"
       style="fill:url(#linearGradient2842);fill-rule:evenodd;stroke-width:1px"
       inkscape:connector-curvature="0" />
    <path
       id="path2844"
       d="M 47.26487,64.043243 C 47.13514,63.82703 46.227032,63.048648 46.227032,63.048648 l 26.854061,-6.270267 2.464844,0.648647 -28.497288,6.572971 0.216221,0.04324 z"
       style="fill:url(#linearGradient2846);fill-rule:evenodd;stroke-width:1px"
       inkscape:connector-curvature="0" />
    <path
       id="path2848"
       d="m 71.308113,64.475677 0.12973,20.843239 4.929726,-1.64325 -0.216217,-20.410797 -4.843239,1.210808 z"
       style="fill:url(#linearGradient2850);fill-rule:evenodd;stroke-width:1px"
       inkscape:connector-curvature="0" />
    <path
       id="path2852"
       d="m 69.837837,64.821617 1.427025,-0.302696 0.25946,20.713509 -1.643242,-2.508102 -0.04324,-17.90271 z"
       style="fill:url(#linearGradient2854);fill-rule:evenodd;stroke-width:1px"
       inkscape:connector-curvature="0" />
    <path
       id="path2858"
       d="m 47.52433,69.75135 6.443241,-1.383781 0.08648,21.275673 -6.39999,1.340546 -0.12973,-21.232437 z"
       style="fill:url(#linearGradient2860);fill-rule:evenodd;stroke-width:1px"
       inkscape:connector-curvature="0" />
    <path
       id="path2862"
       d="m 46.183781,63.005409 1.081089,0.864861 0,5.75135 0.25946,0.12973 0.3027,21.102707 -0.648651,-0.12973 -1.081078,-0.648643 -0.08649,-26.248653 0.17297,-0.821621 z"
       style="fill:url(#linearGradient2864);fill-rule:evenodd;stroke-width:1px"
       inkscape:connector-curvature="0" />
    <path
       id="path3096"
       d="m 55.74054,68.021622 0.08649,7.005402 14.183781,7.783783 0.04324,-18.075668 -14.313507,3.286484 z"
       style="fill:url(#linearGradient3098);fill-rule:evenodd;stroke-width:1px"
       inkscape:connector-curvature="0" />
    <path
       id="path3101"
       d="m 53.837841,72.345947 0.04324,-3.978378 2.162159,-0.389191 -0.389179,6.789192 -1.816219,-2.421623 z"
       style="fill:url(#linearGradient3103);fill-rule:evenodd;stroke-width:1px"
       inkscape:connector-curvature="0" />
    <path
       id="path3105"
       d="m 49.470268,109.1027 2.94054,-0.17297 6.616222,13.49189 -3.805412,0.86486 -5.75135,-14.18378 z"
       style="fill:url(#linearGradient3107);fill-rule:evenodd;stroke-width:1px"
       inkscape:connector-curvature="0" />
    <path
       d="m 55.3946,108.02162 2.94054,-0.17297 6.313511,12.8 -3.762161,0.95134 -5.49189,-13.57837 z"
       id="path3110"
       style="fill:url(#linearGradient3112);fill-rule:evenodd;stroke-width:1px"
       inkscape:connector-curvature="0" />
    <path
       id="path3114"
       d="m 61.18919,106.94054 2.94054,-0.17297 6.616219,13.49189 -3.805412,0.86486 -5.751347,-14.18378 z"
       style="fill:url(#linearGradient3116);fill-rule:evenodd;stroke-width:1px"
       inkscape:connector-curvature="0" />
    <path
       d="m 70.183777,105.03784 2.940552,-0.17297 6.616211,13.49189 -3.805412,0.86486 -5.75135,-14.18378 z"
       id="path3118"
       style="fill:url(#linearGradient3120);fill-rule:evenodd;stroke-width:1px"
       inkscape:connector-curvature="0" />
    <path
       id="path3122"
       d="m 68.021622,110.91892 2.24865,-0.56216 2.032425,5.01622 -2.162155,0.6054 -2.118919,-5.05946 z"
       style="fill:url(#linearGradient3124);fill-rule:evenodd;stroke-width:1px"
       inkscape:connector-curvature="0" />
    <path
       d="M 79.956757,112.47568 82.205414,112 l 0.908104,1.72973 -2.16217,0.47567 -0.994591,-1.72972 z"
       id="path3126"
       style="fill:url(#linearGradient3128);fill-rule:evenodd;stroke-width:1px"
       inkscape:connector-curvature="0" />
    <path
       id="path3130"
       d="m 81.427017,103.04865 2.983795,-0.34594 6.616219,13.49189 -4.151352,0.69189 -5.448662,-13.83784 z"
       style="fill:url(#linearGradient3132);fill-rule:evenodd;stroke-width:1px"
       inkscape:connector-curvature="0" />
    <path
       d="m 89.210823,104.64866 2.11618,-0.24385 1.60273,0.8925 4.843239,9.51351 -3.805405,0.86486 -4.756744,-11.02702 z"
       id="path3134"
       style="fill:url(#linearGradient3136);fill-rule:evenodd;stroke-width:1px"
       inkscape:connector-curvature="0" />
    <path
       id="path3138"
       d="m 99.545937,113.60001 3.718923,-0.77838 0.60541,1.03784 -3.80541,0.86486 -0.518923,-1.12431 z"
       style="fill:url(#linearGradient3140);fill-rule:evenodd;stroke-width:1px"
       inkscape:connector-curvature="0" />
    <path
       d="m 104.38919,110.57298 c 0.85594,-1.59725 1.72924,-3.18582 1.68648,-5.23243 l 3.71892,7.48108 -3.8054,0.86486 -1.6,-3.11351 z"
       id="path3142"
       style="fill:url(#linearGradient3144);fill-rule:evenodd;stroke-width:1px"
       inkscape:connector-curvature="0" />
    <path
       id="path3146"
       d="m 108.92973,105.34055 2.03242,-0.43243 c 2.31555,2.04158 3.21897,4.61271 4.71352,6.96216 l -3.8054,0.86486 -2.94054,-7.39459 z"
       style="fill:url(#linearGradient3148);fill-rule:evenodd;stroke-width:1px"
       inkscape:connector-curvature="0" />
    <path
       d="m 117.27567,110.4865 2.8108,-2.24865 1.12433,2.68108 -3.4162,0.86486 -0.51893,-1.29728 z"
       id="path3150"
       style="fill:url(#linearGradient3152);fill-rule:evenodd;stroke-width:1px"
       inkscape:connector-curvature="0" />
    <path
       id="path3154"
       d="m 66.464867,98.118919 12.713516,-2.551346 1.340538,1.902695 -13.967567,3.027022 -0.08649,-2.378371 z"
       style="fill:url(#linearGradient3156);fill-rule:evenodd;stroke-width:1px"
       inkscape:connector-curvature="0" />
    <path
       d="m 70.962173,101.53513 5.881073,-1.42703 0.951347,2.37838 -6.962151,1.03784 0.12973,-1.98919 z"
       id="path3158"
       style="fill:url(#linearGradient3160);fill-rule:evenodd;stroke-width:1px"
       inkscape:connector-curvature="0" />
    <path
       d="m 64.432426,95.437843 12.324333,-3.24324 1.037834,1.816208 -12.108101,3.070267 -1.254066,-1.643234 z"
       id="path3166"
       style="fill:url(#linearGradient3168);fill-rule:evenodd;stroke-width:1px"
       inkscape:connector-curvature="0" />
    <path
       id="path3170"
       d="m 62.789188,92.540543 10.508099,-2.98378 1.64325,1.902695 -10.897293,2.724319 -1.254055,-1.643234 z"
       style="fill:url(#linearGradient3172);fill-rule:evenodd;stroke-width:1px"
       inkscape:connector-curvature="0" />
    <path
       d="m 60.064869,88.864868 10.162159,-2.24865 1.729729,2.075668 -10.291885,2.162163 -1.600002,-1.989182 z"
       id="path3174"
       style="fill:url(#linearGradient3176);fill-rule:evenodd;stroke-width:1px"
       inkscape:connector-curvature="0" />
    <path
       id="path3179"
       d="m 58.33514,86.63784 9.167561,-2.291893 1.708122,1.772972 -9.318932,1.772972 -1.556751,-1.254051 z"
       style="fill:url(#linearGradient3181);fill-rule:evenodd;stroke-width:1px"
       inkscape:connector-curvature="0" />
    <path
       d="m 56.6054,84 7.870277,-1.708107 1.816216,1.470268 L 58.010811,85.49189 56.6054,84 z"
       id="path3183"
       style="fill:url(#linearGradient3185);fill-rule:evenodd;stroke-width:1px"
       inkscape:connector-curvature="0" />
    <path
       id="path3187"
       d="m 55.308109,81.902702 6.702702,-2.010811 1.729729,1.75135 -7.24324,1.643242 -1.18919,-1.383781 z"
       style="fill:url(#linearGradient3189);fill-rule:evenodd;stroke-width:1px"
       inkscape:connector-curvature="0" />
    <path
       d="m 54.486481,79.351349 4.951359,-1.124321 1.643242,1.340546 -5.837841,1.708099 -0.75676,-1.924324 z"
       id="path3191"
       style="fill:url(#linearGradient3195);fill-rule:evenodd;stroke-width:1px"
       inkscape:connector-curvature="0" />
    <path
       id="path3197"
       d="m 54.443241,77.23243 2.50811,-0.908096 0.929729,1.124313 -2.94054,0.756767 -0.497299,-0.972984 z"
       style="fill:url(#linearGradient3199);fill-rule:evenodd;stroke-width:1px"
       inkscape:connector-curvature="0" />
    <path
       d="m 53.729729,75.697304 1.49189,-0.497307 0.648651,0.497307 -1.729729,0.735123 -0.410812,-0.735123 z"
       id="path3201"
       style="fill:url(#linearGradient3203);fill-rule:evenodd;stroke-width:1px"
       inkscape:connector-curvature="0" />
    <path
       id="path3205"
       d="m 46.67601,112.15405 39.562508,-9.0625 3.5,1.6875 -42.562508,9.375 -0.5,-2 z"
       style="fill:url(#linearGradient3207);fill-rule:evenodd;stroke-width:1px"
       inkscape:connector-curvature="0" />
    <path
       d="m 49.15089,120.50675 71.82424,-12.59803 0.67157,1.77588 -72.481951,12.73376 -0.01386,-1.91161 z"
       id="path3209"
       style="fill:url(#linearGradient3211);fill-rule:evenodd;stroke-width:1px"
       inkscape:connector-curvature="0" />
    <path
       id="path3213"
       d="m 65.073753,107.94345 2.695839,-3.44715 0.928078,-2.87262 -0.795486,-3.844887 -2.519081,-4.596207 -5.435883,-6.894279 -3.09359,-3.889084 -2.87262,-4.552002 0.08839,-1.193245 0.83968,1.414215 1.90036,3.0494 3.09359,3.7565 3.22617,3.712311 3.889088,5.259109 2.032936,3.181976 1.281639,4.552003 -2.430679,5.03813 -2.60746,3.53554 -0.22097,-2.20971 z"
       style="fill:url(#linearGradient3215);fill-rule:evenodd;stroke-width:1px"
       inkscape:connector-curvature="0" />
    <path
       id="path3217"
       d="m 70.686409,118.55005 3.53553,-3.27037 2.430679,-2.87262 1.944542,-4.37522 0.309357,-0.97228 1.94455,-0.30935 -0.309357,1.94454 -0.618721,2.47487 -1.723572,2.16552 -2.16552,2.47487 -5.347488,2.74004 z"
       style="fill:url(#linearGradient3219);fill-rule:evenodd;stroke-width:1px"
       inkscape:connector-curvature="0" />
    <path
       id="path3221"
       d="m 78.862328,104.58469 -0.176781,-2.82843 -2.16552,-4.684567 c 0,0 -1.590981,-2.519073 -1.988724,-2.695854 -0.397751,-0.176765 -2.82843,-3.005196 -2.82843,-3.005196 l -7.424622,-6.938492 -6.49654,-5.303299 -3.933281,-3.844894 0,-0.795502 1.01646,0.795502 1.723568,1.856148 3.402962,2.784241 4.198452,3.53553 4.551987,3.7565 3.977478,3.623932 2.961014,2.961014 2.740036,3.57972 1.679375,3.181977 0.751305,3.71231 -1.988739,0.30936 z"
       style="fill:url(#linearGradient3223);fill-rule:evenodd;stroke-width:1px"
       inkscape:connector-curvature="0" />
    <path
       id="path3884"
       d="m 100.15625,90.5 c -4.171211,0.390732 -6.997742,1.985298 -9.610573,3.475983 -2.459373,0.818756 -6.13018,0.851181 -7.786903,2.00901 l -0.06024,0.354797 c 0.512794,1.692848 1.881584,4.7594 2.211761,5.23623 -0.819527,0.38464 -0.779312,1.8107 0.83551,2.53456 1.238617,1.26248 2.864479,0.69119 2.601128,0.35852 -0.854088,-0.64267 4.05468,1.9444 4.318428,2.43989 3.558884,0.77312 1.210487,5.30444 6.040894,5.72557 4.252895,0.30286 7.336985,-4.33343 6.347865,-6.57194 -0.65125,-0.7526 1.5895,1.35112 2.59855,0.56681 4.00378,-1.53572 3.19558,3.13703 7.39127,3.14513 3.53628,0.33815 5.19118,-2.61372 5.58359,-4.32085 1.13756,-1.79782 -2.66742,-3.0242 -2.51813,-4.73834 -0.66371,-1.268951 1.01305,-4.308434 -2.61451,-3.919319 -1.85726,0.363899 4.76905,0.192513 -0.57544,-1.167313 -3.76494,-0.780319 -6.48006,-2.410805 -9.27715,-3.948685 -1.7208,-0.60762 -3.64113,-0.831627 -5.48605,-1.180054 z"
       inkscape:connector-curvature="0"
       style="fill:#000000;fill-opacity:0.66666697;fill-rule:evenodd;stroke-width:1px;filter:url(#filter3963)" />
    <path
       id="path3229"
       d="m 85.403069,87.658333 11.446289,8.573654 0,6.761713 -1.546799,3.31456 -3.402946,-1.59099 -3.005203,-2.91681 -1.635193,-1.944549 -1.679375,-9.50174 -0.176773,-2.695839 z"
       style="fill:url(#linearGradient3231);fill-rule:evenodd;stroke-width:1px"
       inkscape:connector-curvature="0" />
    <path
       id="path3233"
       d="m 96.849358,96.011017 24.085822,-7.336227 -0.7513,9.678528 -1.81196,-0.839684 -1.81197,-0.0442 c 0,0 -1.14904,0.530327 -1.59099,0.7071 -0.44194,0.176781 -1.94454,1.723587 -1.94454,1.723587 l -2.20971,5.126509 -4.81716,0.83969 -0.44194,-2.82842 -2.87262,-2.38649 -2.60746,-0.26517 -1.546798,1.23744 -1.723572,1.37002 0.0442,-6.982686 z"
       style="fill:url(#linearGradient3235);fill-rule:evenodd;stroke-width:1px"
       inkscape:connector-curvature="0" />
    <path
       id="path3237"
       d="m 85.624039,87.614143 10.032074,-3.668137 17.368307,-0.08838 7.82237,4.817162 -24.041629,7.424622 -11.181122,-8.485268 z"
       style="fill:url(#linearGradient3239);fill-rule:evenodd;stroke-width:1px"
       inkscape:connector-curvature="0" />
    <path
       id="path3241"
       d="m 99.412621,100.96077 -2.032944,1.67938 -1.767754,2.16551 -0.751305,2.34229 0.132584,1.98874 0.618721,1.94454 1.325813,1.591 c 0,0 1.325836,0.7513 1.90036,0.7513 0.574524,0 2.298094,-0.17678 2.298094,-0.17678 l 1.63519,-1.19324 2.16551,-2.34229 0.97227,-3.04941 -0.22097,-3.31456 -2.03293,-2.38648 -2.38649,-0.66291 -1.85615,0.66291 z"
       style="fill:url(#linearGradient3243);fill-rule:evenodd;stroke-width:1px"
       inkscape:connector-curvature="0" />
    <path
       id="path3245"
       d="m 97.512268,104.05436 1.988739,-1.76777 2.121323,-0.53033 1.76776,0.7955 1.06066,1.63518 0.17678,2.16552 c 0,0 -0.88389,2.91681 -0.97227,3.09359 -0.0884,0.17678 -0.97227,1.32583 -0.97227,1.32583 l -1.90035,1.23743 -2.165513,-0.22097 -1.414215,-0.79549 -0.883881,-2.38649 0.22097,-2.07713 0.972267,-2.47487 z"
       style="fill:url(#linearGradient3247);fill-rule:evenodd;stroke-width:1px"
       inkscape:connector-curvature="0" />
    <path
       id="path3249"
       d="m 99.412621,105.64535 -0.486137,1.63519 0.353554,1.5026 0.972272,0.22097 1.5026,-1.06066 0.22097,-1.85616 -0.39775,-1.10485 -0.97227,-0.13258 -0.53033,0.17677 -0.574522,0.39775 -0.08839,0.22097 z"
       style="fill:url(#linearGradient3251);fill-rule:evenodd;stroke-width:1px"
       inkscape:connector-curvature="0" />
    <path
       d="m 115.58768,97.778793 -2.03293,1.67939 -1.76777,2.165497 -0.7513,2.34229 0.13259,1.98874 0.61871,1.94454 1.32583,1.591 c 0,0 1.32582,0.7513 1.90035,0.7513 0.57452,0 2.2981,-0.17678 2.2981,-0.17678 l 1.63518,-1.19324 2.16552,-2.34229 0.97227,-3.04941 -0.22097,-3.31456 -2.03293,-2.386478 -2.38649,-0.397743 -1.85616,0.397743 z"
       id="path3253"
       style="fill:url(#linearGradient3259);fill-rule:evenodd;stroke-width:1px"
       inkscape:connector-curvature="0" />
    <path
       d="m 113.68733,100.87238 1.98874,-1.767773 2.12132,-0.530327 1.76777,0.795502 1.06066,1.635178 0.17678,2.16552 c 0,0 -0.88389,2.91681 -0.97227,3.09359 -0.0884,0.17678 -0.97228,1.32583 -0.97228,1.32583 l -1.90035,1.23743 -2.16551,-0.22097 -1.41422,-0.79549 -0.88388,-2.38649 0.22097,-2.07713 0.97227,-2.47487 z"
       id="path3255"
       style="fill:url(#linearGradient3261);fill-rule:evenodd;stroke-width:1px"
       inkscape:connector-curvature="0" />
    <path
       d="m 115.58768,102.46337 -0.48613,1.63519 0.35355,1.5026 0.97227,0.22097 1.5026,-1.06066 0.22097,-1.85616 -0.44193,-0.83968 -0.83969,-0.17678 -0.61872,-0.0442 -0.57453,0.39775 -0.0884,0.22097 z"
       id="path3257"
       style="fill:url(#linearGradient3263);fill-rule:evenodd;stroke-width:1px"
       inkscape:connector-curvature="0" />
    <path
       id="path3265"
       d="m 86.198563,95.790047 -0.7071,1.325836 -0.486145,2.298096 0.751305,2.740031 1.104851,1.72357 1.458405,0.57453 1.590996,0.30936 1.546783,-0.44194 -2.298088,-1.98874 c 0,0 -1.458412,-2.386476 -1.723572,-2.69584 -0.265167,-0.309357 -1.060654,-3.756508 -1.237434,-3.844902 z"
       style="fill:url(#linearGradient3267);fill-rule:evenodd;stroke-width:1px"
       inkscape:connector-curvature="0" />
    <path
       id="path3269"
       d="m 89.115379,87.96769 3.270363,-1.237442 3.0494,-1.988739 1.856155,-2.916809 2.872623,-1.900352 4.77297,-1.635185 2.38648,0.618721 3.53554,1.546791 1.72357,2.563263 0.61872,1.635185 1.41421,1.502602 c 0,0 3.35876,1.856155 2.91682,1.988739 -0.44195,0.132591 -20.329319,6.187187 -20.329319,6.187187 l -8.087532,-6.36396 z"
       style="fill:url(#linearGradient3271);fill-opacity:1;fill-rule:evenodd;stroke-width:1px"
       inkscape:connector-curvature="0" />
    <path
       d="m 5.55972,53.53397 8.1948,-7.216309 6.604759,-4.403172 c 0,0 7.950171,-4.525478 10.763309,-5.99321 2.813141,-1.46772 6.84938,-5.25934 6.84938,-5.25934 l 4.280861,-2.813139 8.439419,-3.79162 -1.563278,2.66931 -6.586891,8.937599 -7.771069,8.625271 -3.849512,9.62925 -2.52297,10.663467 c -0.265388,5.273346 -2.233149,10.2062 -4.11665,15.155922 L 17.423829,95.364121 C 13.099879,90.836808 6.570379,87.453133 10.574449,78.607598 7.104929,71.055703 0.238009,65.026772 5.55972,53.533971 z"
       id="path3275"
       inkscape:connector-curvature="0"
       style="fill:#000000;fill-opacity:0.15686298;fill-rule:evenodd;stroke-width:1px" />
    <path
       d="m 69.837837,64.821617 1.427025,-0.302696 0.25946,20.713509 -1.643242,-2.508102 -0.04324,-17.90271 z"
       id="path3854"
       inkscape:connector-curvature="0"
       style="fill:#000000;fill-opacity:0.15686298;fill-rule:evenodd;stroke-width:1px" />
    <path
       d="m 46.183781,63.005409 1.081089,0.864861 0,5.75135 0.25946,0.12973 0.3027,21.102707 -0.648651,-0.12973 -1.081078,-0.648643 -0.08649,-26.248653 0.17297,-0.821621 z"
       id="path3856"
       inkscape:connector-curvature="0"
       style="fill:#000000;fill-opacity:0.15686298;fill-rule:evenodd;stroke-width:1px" />
    <path
       d="m 55.74054,68.021622 0.08649,7.005402 14.183781,7.783783 0.04324,-18.075668 -14.313507,3.286484 z"
       id="path3858"
       inkscape:connector-curvature="0"
       style="fill:#000000;fill-opacity:0.15686298;fill-rule:evenodd;stroke-width:1px" />
    <path
       d="m 53.837841,72.345947 0.04324,-3.978378 2.162159,-0.389191 -0.389179,6.789192 -1.816219,-2.421623 z"
       id="path3860"
       inkscape:connector-curvature="0"
       style="fill:#000000;fill-opacity:0.15686298;fill-rule:evenodd;stroke-width:1px" />
    <path
       id="path3862"
       d="m 66.426018,58.216549 6.6875,-1.5 1.9375,0.6875 -2.875,-5.875 -2.625,-5.3125 -2.75,-2.1875 -2.5,-1.25 c 4.947189,5.703583 3.312759,10.541161 2.125,15.4375 z"
       inkscape:connector-curvature="0"
       style="fill:#000000;fill-opacity:0.15686298;fill-rule:evenodd;stroke-width:1px" />
    <path
       id="path3864"
       d="m 39.11351,57.529049 0.1875,1.5625 1.4375,2.5 2.125,1.375 3,0.375 0.3125,6.312504 c 0,0 -9.375,-4.4375 -7.0625,-12.125004 z"
       inkscape:connector-curvature="0"
       style="fill:#000000;fill-opacity:0.15686298;fill-rule:evenodd;stroke-width:1px" />
    <path
       id="path3868"
       d="m 80.551018,41.154049 3.8125,-2.5625 5.9375,-5.5 0.875,2.8125 2.75,3.75 2.375,2.4375 3,4.625 0.937492,2.75 c -3.450897,0.189522 -7.51709,-1.082249 -9.749992,2 l -1.6875,-1.5625 c 0,0 -6.4375,-5.375 -6.4375,-5.625 0,-0.25 -2,-3.25 -1.8125,-3.125 z"
       inkscape:connector-curvature="0"
       style="fill:#000000;fill-opacity:0.15686298;fill-rule:evenodd;stroke-width:1px" />
    <path
       id="path3870"
       d="m 109.92601,41.716549 7.375,12.375 c -0.68929,1.95834 -1.14027,3.916672 -2.125,5.875 0.59286,-7.219498 -3.33146,-12.047558 -5.25,-17.9375 l 0,-0.3125 z"
       inkscape:connector-curvature="0"
       style="fill:#000000;fill-opacity:0.15686298;fill-rule:evenodd;stroke-width:1px" />
    <path
       d="m 85.403069,87.658333 11.446289,8.573654 0,6.761713 -1.546799,3.31456 -3.402946,-1.59099 -3.005203,-2.91681 -1.635193,-1.944549 -1.679375,-9.50174 -0.176773,-2.695839 z"
       id="path3872"
       inkscape:connector-curvature="0"
       style="fill:#000000;fill-opacity:0.15686298;fill-rule:evenodd;stroke-width:1px" />
    <path
       d="m 86.198563,95.790047 -0.7071,1.325836 -0.486145,2.298096 0.751305,2.740031 1.104851,1.72357 1.458405,0.57453 1.590996,0.30936 1.546783,-0.44194 -2.298088,-1.98874 c 0,0 -1.458412,-2.386476 -1.723572,-2.69584 -0.265167,-0.309357 -1.060654,-3.756508 -1.237434,-3.844902 z"
       id="path3874"
       inkscape:connector-curvature="0"
       style="fill:#000000;fill-opacity:0.15686298;fill-rule:evenodd;stroke-width:1px" />
    <path
       id="path3876"
       d="m 89.115379,88.100273 6.054604,-3.005211 1.414207,-2.430679 3.402946,-2.651649 5.170724,-1.767776 0.44194,1.193253 0.66291,1.502602 -0.17677,1.104858 0.66291,2.474869 c -4.628,1.341309 -6.797878,5.755264 -9.678524,9.280785 l -0.176781,0.22097 -7.601395,-5.833633 -0.176773,-0.08839 z"
       style="fill:#494949;fill-opacity:0.15686298;fill-rule:evenodd;stroke-width:1px"
       inkscape:connector-curvature="0" />
    <g
       id="layer1">
      <path
         id="path2496"
         d="m 51.14476,23.122801 c -5.362968,1.818079 -9.983212,5.28656 -14.84375,8.1875 -4.89793,2.6322 -8.57019,6.564367 -12.96875,8.499998 -7.26965,2.432552 -12.58632,8.622631 -18.0625,13.65625 l 0.59375,0.125 c 5.33572,-5.314327 10.78764,-9.884098 17.78125,-12.84375 5.052469,-1.979679 9.2673,-5.482288 13.53125,-8.749998 3.843048,-2.916491 7.545681,-5.708422 11.71875,-6.84375 -3.222691,3.363829 -5.0075,7.416571 -8.21875,10.999998 -5.783482,4.198853 -8.111,10.263302 -10.28125,16.875 -0.93729,3.365891 -1.502991,6.846081 -2.09375,10.34375 -2.82765,1.683933 -4.65382,4.105442 -7.3125,6.031254 -4.91017,1.414436 -7.96358,5.273849 -10.6875,9.375 l 0.21875,0.15625 c 2.5364,-4.227325 5.89864,-6.613182 10.78125,-8.09375 2.18915,-1.7034 4.36982,-3.44754 6.59375,-5.125 -0.356171,2.015114 -0.748159,4.022957 -1.25,6.03125 -1.730711,3.835541 -3.04192,7.846306 -4.4375,11.8125 -1.66326,4.697731 -3.426411,9.384369 -4.8125,11.5625 l 0.21875,0.40625 c 1.525089,-2.396576 3.989769,-6.69944 5.65625,-11.40625 1.666491,-4.706795 3.155741,-9.68647 4.28125,-11.9375 1.36824,-6.270744 2.291229,-11.629173 3.6875,-17.906254 1.65789,-5.95356 4.55592,-12.429398 10.78125,-17.09375 l 0.03125,-0.03125 0.03125,-0.03125 c 4.012409,-4.443581 5.221889,-8.546478 9.59375,-11.999998 5.671558,1.986078 8.585499,4.39155 14.312508,7.249998 4.285759,2.723801 9.028671,4.008621 12.53125,7.875 2.702179,4.501392 7.506599,7.228001 11.25,10.8125 2.39032,3.72176 5.42128,6.91753 8.78125,9.71875 3.139872,2.60815 5.986342,5.098011 7.437492,8.250004 -1.52926,-3.413185 -3.65411,-6.433681 -6.781242,-9.031254 -3.224838,-2.678707 -6.632599,-5.422989 -8.96875,-9.125 l -0.03125,-0.03125 -0.03125,-0.03125 c -3.399956,-2.9566 -6.661728,-5.837418 -9.125,-9.53125 2.824829,-1.686398 3.968346,-2.632408 5.03125,-3.625 0.938942,-0.876827 2.012039,-1.88567 4.0625,-3.4375 0.181274,3.304352 2.799225,5.265312 5.0625,7.25 2.032005,2.48011 3.97683,4.979721 5.031242,8.03125 l 0.125,-0.1875 c -0.581329,-2.906651 -2.608131,-6.154591 -4.343742,-8.46875 -2.259239,-1.650158 -3.529709,-3.735371 -4.25,-6.28125 2.086845,1.405422 4.886795,2.344883 7.84375,3.25 3.636862,1.113251 7.417612,2.23241 10.124992,4.125 1.42324,3.87645 5.13392,9.26059 7.65625,12.375 l 0.375,-0.15625 c -2.51342,-3.103409 -5.453,-9.392818 -6.71875,-13 -3.05552,-2.365929 -7.47562,-3.18058 -11.156242,-4.3125 l -9.5,-4.843748 c -2.827126,2.051168 -3.909065,3.916658 -4.96875,4.906248 -1.001274,0.93504 -2.139191,2.243111 -4.71875,3.84375 -0.29158,-0.46138 -0.57843,-0.917019 -0.84375,-1.40625 l 0,-0.03125 -0.03125,-0.0625 C 76.41288,35.193279 70.938637,34.230179 66.58226,31.529051 l -0.03124,0 -0.03125,-0.03125 c -4.565578,-2.79166 -9.483036,-5.58333 -15.375008,-8.375 z m 13.000008,19.687498 0.0625,0.0625 c 3.550766,1.189022 4.945869,4.179642 6.34375,6.71875 1.22924,2.23283 2.124985,4.7869 3.625,7.21875 l -1.03125,-0.125 -27.250008,6.09375 c -4.01651,0.367401 -6.248859,-1.668709 -6.6875,-5.3125 l -0.1875,-0.09375 c 0.115879,4.426571 2.580379,6.364182 6.71875,6.40625 l 0.09375,5.093754 0.1875,21.46875 c -1.13472,2.16967 -3.655399,3.22007 -5.6875,4.53125 -1.87418,1.369064 -3.839241,2.664787 -4.46875,4.875 l 0.28125,-0.03125 c 0.504391,-1.770935 2.643539,-3.02729 4.53125,-4.40625 1.832119,-1.338341 4.987041,-2.207886 5.90625,-4.625 l 0.8125,0.46875 6.875,-1.4375 5.5,-1.5 0.53125,-0.125 0.78125,-0.15625 c 0.103611,0.128929 0.178589,0.277328 0.28125,0.40625 l -1.8125,0.375 2.15625,2.5 1.59375,-0.375 c 0.266071,0.361176 0.528961,0.735176 0.781258,1.09375 l -1.656258,0.46875 1.781258,2.25 1.4375,-0.40625 c 0.128159,0.2089 0.25399,0.417946 0.375,0.625 l -1.84375,0.46875 1.46875,2.125 1.53125,-0.40625 c 0.02308,0.05012 0.03999,0.1063 0.0625,0.15625 0.07068,0.15683 0.120949,0.33725 0.1875,0.5 l -1.3125,0.28125 0.40625,2.781247 1.71875,-0.34375 c 0.09842,0.59297 0.146042,1.1665 0.09375,1.65625 -0.139275,1.30431 -1.915359,4.33626 -3.25,5.65625 l -0.59375,-1.1875 -3.781258,0.125 0.78125,1.875 c -0.71534,0.1656 -1.435291,0.33529 -2.15625,0.5 l -0.71875,-1.4375 -3.4375,0.15625 0.8125,2.03125 c -0.881451,0.19609 -1.790119,0.39917 -2.6875,0.59375 l -0.8125,-1.5625 -3.4375,0.125 0.90625,2.15625 c -1.33741,0.27945 -2.01701,0.38049 -3.40625,0.65625 l 0,0.8125 c 7.46027,-1.52051 13.498138,-3.00694 20.093758,-4.59375 -0.557281,0.86686 -1.065018,1.5817 -1.46875,2 -6.149567,1.48314 -11.758068,2.85307 -18.093758,3.9375 l -0.03125,0.5 c 1.462292,-0.2919 2.479679,-0.511 3.9375,-0.8125 l 2.4375,5.90625 -4.34375,0.78125 -0.0625,0.59375 23.375008,-4.15625 c -0.573799,0.51169 -1.209381,1.01032 -1.875,1.53125 l -21.437508,3.84375 -0.09375,0.5625 5.34375,-0.9375 0.71875,1.71875 4.46875,-0.9375 -0.8125,-1.5625 1.5,-0.25 0.5,1.25 4.468758,-0.9375 -0.53125,-1.09375 1.46875,-0.25 0.59375,1.46875 4.5,-0.90625 -0.65625,-1.34375 4.59375,-0.8125 0.5,1.25 4.5,-0.9375 -0.53125,-1.09375 6.71875,-1.1875 0.375,1.03125 4.5625,-0.65625 -0.53125,-1.125 2.40625,-0.4375 0.5,1.15625 4.5,-0.9375 -0.5,-1 1.6875,-0.3125 0.5625,1.375 4.499992,-0.9375 -0.59375,-1.21875 1.4375,-0.25 0.40625,1.03125 3.875,-0.8125 0.625,-0.125 -0.4375,-0.875 1.5,-0.25 0.5625,1.3125 4.5,-0.9375 -0.59375,-1.1875 1.4375,-0.25 0.53125,1.25 4.03125,-0.96875 -0.4375,-1 0.8125,-0.28125 -0.40625,-0.5625 -3.125,0.5625 c 0.57105,-0.36891 1.08623,-0.81875 1.53125,-1.3125 l 1.25,-0.21875 -0.1875,-0.5625 -0.53125,0.0937 c 1.06345,-1.47639 1.682,-3.30876 1.8125,-5.21875 -0.0263,-1.97089 -0.70766,-3.360494 -1.84375,-4.218747 0.59985,-3.057655 0.3328,-6.358086 0.75,-9.46875 l -8.40625,-5.3125 c -0.64574,-1.47654 -1.26803,-2.65966 -2.28125,-3.46875 -1.65543,-1.259476 -3.78852,-1.856239 -5.6875,-2.0625 -3.61832,1.271271 -7.528732,2.44886 -9.437492,5.75 l -10.78125,3.78125 0.34375,0.125 c 0.305443,1.729546 0.78949,5.512344 0.96875,7.875 -0.666695,1.25457 -1.086906,2.655785 -1.1875,4.125 0.01841,1.377737 0.35321,2.477547 0.9375,3.312497 -0.315041,0.0705 -0.599045,0.14931 -0.90625,0.21875 l -0.3125,-0.6875 -3.34375,0.3125 0.40625,1.09375 c -0.165977,0.0383 -0.333,0.0865 -0.5,0.125 -0.207901,-2.04406 -0.903191,-4.016629 -2,-5.937497 l 1.78125,-0.375 -1.6875,-2.34375 -1.6875,0.34375 c -0.259888,-0.348106 -0.550781,-0.709663 -0.84375,-1.0625 l 1.59375,-0.4375 -1.34375,-2.21875 -2.125,0.5625 c -0.204529,-0.211433 -0.412201,-0.412605 -0.625,-0.625 l 1.34375,-0.375 -2.125,-2.3125 -1.5625,0.46875 c -0.242027,-0.219795 -0.502411,-0.436119 -0.75,-0.65625 l 1.3125,-0.3125 -1.96875,-2.375 -1.9375,0.4375 c -0.106514,-0.08975 -0.205551,-0.191566 -0.3125,-0.28125 l 1.406242,-0.28125 -0.124992,-0.125 7.1875,-2.28125 -0.15625,-20.312504 -0.53125,-6.5 c -1.743774,-2.514629 -3.106796,-5.28759 -4.53125,-7.875 -1.459465,-2.65097 -3.481094,-5.03997 -7.28125,-6.3125 z m 8.6875,14.25 1.59375,0.125 c 0.03267,0.05048 0.06049,0.105911 0.09375,0.15625 l -27.187508,6.3125 -0.40625,-0.4375 25.906258,-6.15625 z m 2.84375,0.65625 0.09375,5.25 -28.156258,6.593754 -0.15625,-5.1875 28.218758,-6.656254 z m -29.312508,5.875 0.46875,0.40625 0.03125,4.937504 -0.4375,-0.4375 -0.0625,-4.906254 z m 29.437508,0.21875 0.28125,19.750004 -2.90625,0.9375 -1.53125,0.46875 -0.21875,-20.1875 4.375,-0.968754 z m -4.8125,1.062504 0.21875,19.8125 -1.03125,-1.8125 0.0625,-17.84375 0.75,-0.15625 z m -1.25,0.28125 0,17.28125 -13.656258,-7.625 0.03125,-6.6875 13.625008,-2.96875 z m -1.75,1.15625 -0.125,4.4375 -3.125,-0.4375 0.09375,-2.3125 -0.250008,-0.125 -0.124992,2.375 -3.093758,-0.4375 0,-1.96875 -0.28125,-0.09375 0,2.03125 -0.6875,-0.09375 0,0.125 0.71875,0.125 0,2.5625 -1.65625,-0.6875 -0.09375,0.34375 1.75,0.6875 0.03125,2.28125 c -1.03487,-0.34243 -2.05479,-0.716972 -3.0625,-1.125 l 0.125,-5.21875 -0.15625,-0.125 -0.21875,5.25 c -0.37645,-0.156929 -0.726131,-0.321503 -1.09375,-0.5 l -0.25,0.1875 c 0.43774,0.224457 0.88644,0.4048 1.34375,0.59375 l -0.03125,0.59375 0.25,0.1875 0.03125,-0.6875 c 0.997528,0.398468 2.026539,0.766273 3.0625,1.09375 l 0,0.53125 0.25,0 0,-0.4375 c 0.911282,0.287468 1.829769,0.549355 2.718758,0.875 l -0.0625,1.09375 0.375,0.09375 0.03125,-1.0625 c 0.410545,0.15641 0.821365,0.320435 1.21875,0.5 l 0,-0.1875 c -0.392479,-0.179733 -0.786377,-0.341743 -1.1875,-0.5 l 0.09374,-2.0625 1.687508,0.65625 c 0,1.231247 0,4.34375 0,4.34375 l 0.34375,0.125 c 0,0 -0.07323,-3.010681 -0.09375,-4.34375 l 2.34375,0.90625 0.03125,-0.25 -2.375,-0.96875 c -0.0018,-0.130783 0,-0.525223 0,-0.5625 l -0.25,0 c 0,0.03184 0,0.369484 0,0.46875 l -1.687508,-0.6875 0.156258,-3.375 3.125,0.53125 -0.03125,0.625 0.25,0.25 0.03125,-0.8125 0.8125,0.125 0.03125,-0.34375 -0.84375,-0.125 0.15625,-4.40625 -0.28125,-0.0625 z m -12.437508,1.9375 -0.0625,6.03125 -1.34375,-2 -0.03125,-3.71875 1.4375,-0.3125 z m -1.9375,0.4375 0.195091,20.84597 -5.663841,1.15403 -0.40625,-20.71875 5.875,-1.28125 z m -7.0625,0.5625 0.8125,0.8125 0.03125,20.4375 -0.96875,-0.4375 0.125,-20.8125 z m 14.8125,0.71875 3.062508,0.53125 -0.15625,3.28125 -2.875008,-1.1875 -0.03125,-2.625 z m 0.03125,2.96875 2.843758,1.125 -0.125,2.0625 c -0.891788,-0.338409 -1.811657,-0.63768 -2.718758,-0.9375 l 0,-2.25 z m -7.25,0.0625 1.34375,2.09375 14.250008,7.78125 0,0.0625 1.3125,2.25 -1.875,0.625 -1.625,-1.59375 -1.625,0.40625 c -0.169891,-0.139214 -0.330025,-0.267372 -0.5,-0.40625 l 1.34375,-0.28125 -2.28125,-1.8125 -1.281258,0.28125 c -0.161789,-0.131744 -0.3078,-0.275024 -0.46875,-0.40625 l 1.312508,-0.28125 -2.062508,-1.96875 -1.46875,0.4375 c -0.09993,-0.08284 -0.213291,-0.167442 -0.3125,-0.25 l 1.09375,-0.34375 -1.90625,-1.5 -1.09375,0.21875 c -0.26141,-0.225349 -0.528591,-0.433876 -0.78125,-0.65625 l 0.53125,-0.15625 -1.125,-1.3125 -0.75,0.25 c -0.191029,-0.176552 -0.379089,-0.357071 -0.5625,-0.53125 l 0.0625,-0.03125 0.34375,-0.125 -0.78125,-0.65625 -0.40625,0.0625 c -0.229599,-0.228516 -0.47411,-0.463806 -0.6875,-0.6875 l 0,-1.46875 z m 0.03125,1.875 c 6.030128,6.307755 18.004173,14.245178 23.031258,21.03125 1.927032,2.601326 3.095749,5.416567 3.34375,8.218747 -0.467079,0.10804 -0.944016,0.2361 -1.40625,0.34375 -0.09559,-3.08196 -1.184639,-5.982266 -3.28125,-8.812497 -5.2043,-7.025299 -15.733406,-14.040085 -21.625008,-20.21875 -0.01,-0.01045 -0.0213,-0.02079 -0.03125,-0.03125 l -0.03125,-0.03125 0,-0.5 z m 1,0.53125 0.40625,0.1875 -0.21875,0.09375 c -0.08702,-0.08371 -0.164902,-0.166885 -0.25,-0.25 l 0.0625,-0.03125 z m -1,0.4375 c 0.09921,0.103264 0.211079,0.208839 0.3125,0.3125 l -0.3125,0.1875 0,-0.5 z m 0.4375,0.4375 c 0.173901,0.176498 0.35136,0.353638 0.53125,0.53125 l -0.65625,0.21875 c -0.09574,-0.196869 -0.204361,-0.404289 -0.28125,-0.59375 l 0.40625,-0.15625 z m 2.21875,0.15625 0.875,0.90625 -0.40625,0.09375 c -0.31076,-0.275459 -0.64246,-0.54213 -0.9375,-0.8125 l 0.46875,-0.1875 z m -1.46875,0.59375 c 0.235001,0.229614 0.474838,0.456146 0.71875,0.6875 l -1.0625,0.25 c -0.125778,-0.213615 -0.266521,-0.418022 -0.375,-0.625 l 0.71875,-0.3125 z m -1.1875,0.28125 c 1.41024,3.121407 4.64798,6.453659 7.34375,9.75 2.832207,3.463181 5.792686,7.148674 7.218758,10.3125 0.713036,1.581909 1.145699,3.072987 1,4.437497 -0.08971,0.84014 -1.348366,3.37197 -2.625,5.46875 -0.370247,0.0875 -0.754799,0.16274 -1.125,0.25 1.328873,-1.51988 2.663429,-4.04142 2.8125,-5.4375 0.171585,-1.60688 -0.241089,-3.285039 -1,-4.968747 -1.517838,-3.367416 -4.420246,-6.852325 -7.250008,-10.3125 -2.534809,-3.099525 -5.034161,-6.164276 -6.375,-8.9375 l 0,-0.5625 z m 2.15625,0.625 c 0.232769,0.218819 0.47908,0.435989 0.71875,0.65625 l -1.46875,0.3125 c -0.1492,-0.22435 -0.272041,-0.437454 -0.40625,-0.65625 l 1.15625,-0.3125 z m 2.96875,0.4375 1.5,1.125 -0.84375,0.21875 c -0.486351,-0.406105 -0.941811,-0.789505 -1.40625,-1.1875 l 0.75,-0.15625 z m -5.03125,0.125 c 0.101379,0.21125 0.233009,0.415344 0.34375,0.625 l -0.34375,0.0625 0.875,2.3125 0.75,-0.25 c 0.06425,0.09592 0.09044,0.216507 0.15625,0.3125 l -0.84375,0.25 1.15625,1.65625 0.96875,-0.21875 c 0.10667,0.140114 0.203281,0.29657 0.3125,0.4375 l -1.3125,0.28125 1.65625,1.78125 1.125,-0.21875 c 0.157509,0.193893 0.308121,0.397125 0.46875,0.59375 l -1.6875,0.40625 1.59375,1.4375 -5.21875,1.465607 -0.09375,-10.903107 0.09375,-0.03125 z m 51,0.21875 c 1.9605,0.555916 3.92352,1.134094 4.96875,1.96875 1.15728,0.924126 2.13532,2.069901 3,4.15625 0.32356,0.475647 0.70323,0.850418 1.125,1.21875 l 2.6875,2.03125 -19.812492,5.84375 -0.125,-0.09375 0.15625,0 c 0.789879,-0.907974 1.236565,-2.291389 1.65625,-3.71875 0.419685,-1.427353 0.537476,-3.21405 0.90625,-4.09375 -0.220741,-1.772743 0.958212,-2.828964 1.781242,-4.3125 0.62707,-0.97934 1.61252,-1.818222 3.25,-2.78125 1.106,1.275719 1.1516,1.77935 0.90625,3.25 0.0553,0.876884 0.48858,1.687454 0.84375,2.46875 l 0.3125,0 c -0.30456,-0.743454 -0.49259,-1.583839 -0.71875,-2.34375 0.3837,-1.501701 -0.08,-2.628059 -0.9375,-3.59375 z m -48,0.09375 c 0.470669,0.429825 0.945629,0.877769 1.4375,1.3125 l -1.875,0.5 c -0.38121,-0.50087 -0.73259,-0.985382 -1.0625,-1.46875 l 1.5,-0.34375 z m 46.90625,0.125 c -0.95543,0.585556 -2.66572,1.383888 -3.40625,2.21875 -0.806221,1.259148 -1.181,2.76223 -1.624992,4.8125 -0.473351,1.262985 -0.797134,2.57618 -1.15625,3.875 -0.383987,1.305946 -0.548149,3.116798 -1.03125,3.875 l -7.25,-5.4375 c 2.182762,-0.702477 3.919563,-2.12101 5.874992,-3.25 1.651917,-3.609711 5.02882,-5.289856 8.59375,-6.09375 z m -49.40625,0.46875 c 0.281601,0.512741 0.574619,1.022049 0.90625,1.53125 l -0.375,0.125 -0.71875,-1.625 0.1875,-0.03125 z m 7.09375,0.625 1.59375,1.53125 -1,0.21875 c -0.563011,-0.459579 -1.140781,-0.923019 -1.6875,-1.375 l 1.09375,-0.375 z m -2.9375,0.28125 c 0.100941,0.08887 0.1796,0.1922 0.28125,0.28125 l -1.96875,0.59375 c -0.07339,-0.09381 -0.146629,-0.187813 -0.21875,-0.28125 l 1.90625,-0.59375 z m 0.5625,0.53125 c 0.48494,0.42308 1.00301,0.854439 1.5,1.28125 l -2.5625,0.53125 c -0.321911,-0.391319 -0.66103,-0.767929 -0.96875,-1.15625 l 2.03125,-0.65625 z m -3.1875,1.03125 c 0.25576,0.364014 0.536629,0.726471 0.8125,1.09375 l -0.59375,0.125 -0.8125,-1.03125 0.59375,-0.1875 z m 4.96875,0.46875 c 0.156792,0.134399 0.31118,0.27153 0.46875,0.40625 l -2.71875,0.59375 c -0.115139,-0.138031 -0.229401,-0.268143 -0.34375,-0.40625 l 2.59375,-0.59375 z m 3.187508,0.125 1.5625,1.25 -0.96875,0.1875 c -0.509735,-0.415779 -0.994095,-0.807022 -1.500008,-1.21875 l 0.906258,-0.21875 z m -2.406258,0.5625 c 0.468868,0.400375 0.93412,0.78466 1.40625,1.1875 l -3.1875,0.65625 c -0.345879,-0.410461 -0.683411,-0.803459 -1.03125,-1.21875 l 2.8125,-0.625 z m -4.1875,0.90625 c 0.311741,0.398369 0.608391,0.811256 0.9375,1.21875 l -0.71875,0.15625 -1.03125,-1.1875 0.8125,-0.1875 z m 55.4375,0.5 6.96875,4.09375 -23.343742,7.25 -10.6875,-8.03125 8.8125,-3.21875 c -0.0264,0.05527 -0.06817,0.100464 -0.09375,0.15625 -1.470055,0.905281 -2.893501,1.666145 -4.34375,2.46875 l -2.34375,0.875 8.875,6.5 21.062492,-6.28125 -0.78125,-0.4375 c -1.21754,-1.07486 -2.83235,-1.645836 -3.90625,-2.875 -0.0735,-0.177391 -0.14763,-0.32917 -0.21875,-0.5 z m -45.874992,0.03125 1.34375,1.59375 -0.9375,0.1875 c -0.566315,-0.472855 -1.114624,-0.9673 -1.6875,-1.4375 l 1.28125,-0.34375 z m -3.593758,0.0625 c 0.181801,0.155273 0.349541,0.313179 0.531258,0.46875 l -3.312508,0.78125 c -0.15535,-0.18573 -0.310791,-0.374756 -0.46875,-0.5625 l 3.25,-0.6875 z m 0.75,0.65625 c 0.537071,0.460419 1.062233,0.912468 1.593758,1.375 l -3.875008,0.71875 c -0.1227,-0.149124 -0.25256,-0.287796 -0.375,-0.4375 -0.21965,-0.268585 -0.458519,-0.569061 -0.6875,-0.84375 l 3.34375,-0.8125 z m -4.8125,1.15625 c 0.208771,0.255257 0.411869,0.48938 0.625,0.75 0.128269,0.156837 0.247841,0.311806 0.375,0.46875 l -0.875,0.1875 -1.375,-1.09375 1.25,-0.3125 z m 6.718758,0.5 c 0.105492,0.09219 0.207405,0.189011 0.3125,0.28125 l -3.937508,0.84375 c -0.08941,-0.108116 -0.19175,-0.204102 -0.28125,-0.3125 l 3.906258,-0.8125 z m 3.5625,0.0625 1.625,1.75 -0.84375,0.15625 c -0.626526,-0.553406 -1.25399,-1.102829 -1.90625,-1.65625 l 1.125,-0.25 z m -2.8125,0.59375 c 0.608932,0.538239 1.193802,1.085457 1.78125,1.625 l -4.53125,0.84375 c -0.436378,-0.536423 -0.864086,-1.083031 -1.312508,-1.625 l 4.062508,-0.84375 z m 18.21875,0.4375 11.03125,8.3125 0,0.03125 0.0625,6.656247 c -0.691826,0.8945 -1.199532,1.94956 -1.53125,3.0625 -3.013771,-1.25953 -5.509216,-3.43497 -7.21875,-6.062497 -1.422791,-4.310715 -1.777138,-8.06308 -2.34375,-12 z m -23.812508,0.75 c 0.42889,0.543297 0.84362,1.08419 1.25,1.625 l -1.0625,0.375 -1.59375,-1.71875 1.40625,-0.28125 z m 59,0.34375 c -0.50506,2.933121 -0.2148,5.985474 -0.65625,8.875 -0.93955,-0.505096 -2.09504,-0.731491 -3.4375,-0.65625 -3.37514,1.02388 -5.29752,4.046157 -5.75,7.374997 -1.52723,0.29438 -2.88053,0.48246 -4.375,0.65625 l -0.1875,-0.34375 c -0.27404,-3.33101 -2.53995,-4.87091 -5.8125,-4.6875 -1.345078,0.40804 -2.459877,1.15978 -3.343742,2.09375 l 0.09375,-6.062497 23.468742,-7.25 z m -51.281242,0.40625 c 0.259926,0.240967 0.527306,0.477715 0.78125,0.71875 l -4.46875,1.3125 c -0.256821,-0.33046 -0.514565,-0.668213 -0.78125,-1 l 4.46875,-1.03125 z m 3.78125,0.34375 1.53125,1.5625 -0.84375,0.21875 c -0.498665,-0.489136 -1.027802,-0.97625 -1.5625,-1.46875 l 0.875,-0.3125 z m -2.625,0.75 c 0.521355,0.501381 1.043083,0.999107 1.53125,1.5 l -4.96875,1.3125 c -0.35614,-0.509392 -0.733978,-1.020393 -1.125,-1.53125 l 4.5625,-1.28125 z m -6.1875,1.75 c 0.359665,0.51963 0.707565,1.019905 1.03125,1.53125 l -1.09375,0.28125 -1.125008,-1.46875 1.187508,-0.34375 z m 8.0625,0.125 c 0.193504,0.202286 0.406799,0.39167 0.59375,0.59375 l -5.1875,1.375 c -0.127754,-0.199562 -0.271507,-0.394203 -0.40625,-0.59375 l 5,-1.375 z m 4.3125,0.125 0.84375,1.3125 -1.21875,0.34375 c -0.368385,-0.427773 -0.74691,-0.848145 -1.15625,-1.28125 l 1.53125,-0.375 z m -3.34375,0.875 c 0.384239,0.425529 0.7435,0.82592 1.09375,1.25 l -5.65625,1.5 c -0.239944,-0.46357 -0.49604,-0.944016 -0.78125,-1.40625 l 5.34375,-1.34375 z m 1.4375,1.6875 c 0.212791,0.26696 0.427826,0.546349 0.625,0.8125 0.04024,0.05434 0.08549,0.10173 0.125,0.15625 l -6.1875,1.28125 c -0.05424,-0.124756 -0.100685,-0.251709 -0.15625,-0.375 -0.05693,-0.126274 -0.126686,-0.248909 -0.1875,-0.375 l 5.78125,-1.5 z m -8.59375,0.125 c 0.273445,0.481834 0.52121,0.967934 0.75,1.4375 l -0.96875,0.25 -1.09375,-1.34375 1.3125,-0.34375 z m 12.9375,0.625 0.84375,1.46875 -1.1875,0.25 c -0.29985,-0.492233 -0.619591,-0.9814 -0.96875,-1.46875 l 1.3125,-0.25 z m 7.0625,0.4375 c 0.285835,1.264778 0.615974,2.560944 1.0625,3.906247 0.97081,1.664 2.190948,2.94376 3.59375,4 -0.06196,0.0318 -0.122787,0.0656 -0.1875,0.0937 -3.206131,0.47665 -4.952141,-1.99946 -5.34375,-4.781247 0.05625,-1.141212 0.389252,-2.222153 0.875,-3.21875 z m -10.375,0.21875 c 0.337425,0.494247 0.660873,0.993324 0.9375,1.5 l -6.625,1.4375 c -0.158691,-0.553383 -0.368248,-1.109016 -0.59375,-1.65625 l 6.28125,-1.28125 z m 41.156242,1.21875 c 2.8558,-0.09103 4.59856,2.444447 4.96875,5.062497 -0.1593,3.30302 -2.43618,5.9558 -5.40625,7.25 -3.20612,0.47665 -4.95214,-1.99946 -5.34375,-4.78125 0.1616,-3.27817 2.27036,-6.180539 5.21875,-7.468747 0.20044,-0.03009 0.37211,-0.05642 0.5625,-0.0625 z m -49.374992,0.4375 c 0.207985,0.558136 0.402359,1.123924 0.53125,1.6875 l -1.34375,0.281247 -0.218758,-1.749997 1.031258,-0.21875 z m 9.40625,0.375 c 0.985641,1.967857 1.543251,4.004937 1.625,6.031247 -1.6185,0.37774 -3.161674,0.75261 -4.75,1.125 l -0.46875,-0.96875 -3.78125,0.125 0.71875,1.65625 c -0.824051,0.19421 -1.684616,0.40067 -2.5,0.59375 1.279816,-1.89008 2.492195,-4.04895 2.59375,-5 0.07253,-0.6793 -0.01761,-1.39295 -0.1875,-2.124997 l 6.75,-1.4375 z m 40.156242,0 c -1.35019,0.07814 -2.48459,1.097618 -3.71875,2.468747 -1.29012,2.90327 -1.776,4.7865 -0.0625,7.25 2.72417,2.01723 4.40161,0.79626 6.375,-1.375 1.28726,-2.7896 1.8397,-4.80789 0.125,-7.312497 -1.02674,-0.761292 -1.90864,-1.078133 -2.71875,-1.03125 z m -0.0937,0.5625 c 0.72151,-0.03622 1.48524,0.170219 2.28125,0.65625 1.84585,2.130757 1.21115,4.641267 0,6.906247 -1.49443,1.94483 -3.38107,2.65171 -5.5,1.34375 -1.83919,-2.1361 -1.21739,-4.64066 0,-6.90625 0.9311,-1.221257 2.01623,-1.939618 3.21875,-1.999997 z m -40.031242,0.78125 -6.09375,1.406247 -0.28125,2.53125 7.4375,-1.125 -1.0625,-2.812497 z m -0.15625,0.499997 0.59375,1.875 -6.3125,0.96875 0.15625,-1.59375 5.5625,-1.25 z m 23.968742,0.34375 c 2.8558,-0.091 4.59856,2.44445 4.96875,5.0625 -0.15478,3.2092 -2.30992,5.79313 -5.15625,7.125 l -0.999992,0.1875 c -1.706696,0.01 -2.919266,-0.89014 -3.6875,-2.1875 -0.153648,-0.25947 -0.289154,-0.52492 -0.406258,-0.8125 -0.2342,-0.57516 -0.410004,-1.20451 -0.499992,-1.84375 0.161606,-3.27817 2.270355,-6.18054 5.218742,-7.46875 0.20044,-0.0301 0.37212,-0.0564 0.5625,-0.0625 z m 0.1875,0.8125 c -1.350182,0.0781 -2.484581,1.09762 -3.718742,2.46875 -1.290131,2.90327 -1.776009,4.7865 -0.0625,7.25 2.724159,2.01723 4.401602,0.79626 6.374992,-1.375 1.28726,-2.7896 1.8397,-4.80789 0.125,-7.3125 -1.02673,-0.76129 -1.90863,-1.07813 -2.71875,-1.03125 z m 15.75,0.1875 c -0.59724,0.0635 -1.08537,0.49689 -1.65625,1.0625 -0.74357,1.12457 -0.52712,1.91907 0,3 1.21896,0.72897 1.9607,0.18319 2.875,-0.71875 0.74357,-1.12457 0.52712,-1.91907 0,-3 -0.45786,-0.27189 -0.86041,-0.38184 -1.21875,-0.34375 z m -0.15625,0.25 c 0.42153,0.0113 0.82852,0.2431 1.03125,0.3125 0.50273,0.68964 0.0947,1.84595 -0.125,2.5625 -0.3619,0.72737 -1.43879,0.68733 -1.875,0.75 -0.50136,-0.6912 -0.34604,-2.00229 -0.125,-2.71875 0.24168,-0.72905 0.67222,-0.91755 1.09375,-0.90625 z m -15.6875,0.125 c 0.72151,-0.0362 1.48524,0.17022 2.28125,0.65625 1.84585,2.13076 1.21115,4.64127 0,6.90625 -1.49443,1.94483 -3.381073,2.65171 -5.499992,1.34375 -1.839195,-2.1361 -1.217384,-4.64066 0,-6.90625 0.931091,-1.22127 2.016235,-1.93962 3.218742,-2 z m -17.093742,0.875 0.1875,0.375 c -0.725624,0.16522 -1.468491,0.30311 -2.1875,0.46875 l -0.21875,-0.53125 2.21875,-0.3125 z m 2.1875,0.3125 c 0.558723,0.64296 1.278549,1.08844 2.15625,1.34375 -2.378761,0.48053 -4.746994,0.99463 -7.09375,1.53125 0.04003,-0.56875 0.06694,-1.13132 0.03125,-1.6875 1.630852,-0.39353 3.196976,-0.78261 4.90625,-1.1875 z m -5.468758,1.3125 c 0.02933,0.57203 0.0197,1.15247 -0.03124,1.71875 -0.500656,0.11529 -1.000366,0.22677 -1.5,0.34375 0.06875,-0.57968 0.123741,-1.15239 0.125,-1.71875 0.460434,-0.11166 0.94072,-0.23124 1.406242,-0.34375 z m 10.843758,0 c 0.34687,0.2384 0.697433,0.4713 1.0625,0.6875 l 2.28125,4.59375 c 0.201363,0.88049 0.556664,1.61755 1.0625,2.1875 l -2.84375,0.5 -3.406258,-7.6875 c 0.35038,0.0233 0.715027,0.0225 1.093758,0 0.265594,-0.0793 0.504929,-0.18381 0.75,-0.28125 z m 9.249992,0.125 c -0.59724,0.0635 -1.085373,0.49689 -1.656242,1.0625 -0.743591,1.12457 -0.52713,1.91907 0,3 1.218952,0.72897 1.960692,0.18319 2.874992,-0.71875 0.74358,-1.12457 0.52713,-1.91907 0,-3 -0.45785,-0.27189 -0.8604,-0.38184 -1.21875,-0.34375 z m -0.15625,0.25 c 0.42154,0.0113 0.82852,0.2431 1.03125,0.3125 0.50274,0.68964 0.0947,1.84595 -0.125,2.5625 -0.3619,0.72737 -1.438789,0.68733 -1.874992,0.75 -0.501381,-0.6912 -0.346054,-2.00229 -0.125,-2.71875 0.241669,-0.72905 0.672212,-0.91755 1.093742,-0.90625 z m -11.468742,0.0313 3.1875,7.6875 -2.5625,0.46875 -3.59375,-7.46875 c 0.988205,-0.23451 1.978569,-0.45301 2.96875,-0.6875 z m -10.375,0.0625 c 0.0014,0.55021 -0.02591,1.11243 -0.09376,1.65625 -0.0025,0.0199 0.0026,0.0426 0,0.0625 -4.305138,1.01265 -8.591904,2.05778 -12.874992,3.09375 0.469032,-0.47558 1.046532,-1.20987 1.65625,-2.0625 3.689713,-0.88997 7.445389,-1.81123 11.3125,-2.75 z m -5.5,0.15625 0.25,0.5625 c -0.782791,0.18364 -1.568481,0.38 -2.34375,0.5625 l -0.375,-0.90625 2.46875,-0.21875 z m 37.531242,0.15625 c 0.0225,1.68088 0.5293,2.93855 1.375,3.8125 l -1.0625,0.1875 -1.5625,-3.78125 c 0.41135,-0.072 0.80718,-0.13617 1.25,-0.21875 z m -1.96875,0.34375 1.5625,3.78125 -1.6875,0.3125 -1.84375,-3.8125 c 0.67044,-0.078 1.33076,-0.1771 1.96875,-0.28125 z m -15.374992,0.0313 c 0.502312,0.26624 1.002831,0.51787 1.53125,0.75 -0.135857,0.55404 -0.228806,1.11468 -0.28125,1.6875 l -1.25,-2.4375 z m -8.09375,0.125 3.625,7.40625 -2.84375,0.5 -3.09375,-7.34375 c 0.771301,-0.18277 1.540962,-0.37941 2.3125,-0.5625 z m 20.906242,0.34375 1.78125,3.71875 -3.125,0.53125 -0.0937,-0.21875 c 0.74902,-1.19449 1.2431,-2.5746 1.4375,-4.03125 z m -23.531242,0.28125 2.8125,7.40625 c -2.491287,0.47699 -4.977478,0.8422 -6.90625,1.1875 l -0.53125,-1.03125 c 2.588509,-2.54072 2.665741,-3.99772 3.0625,-7.1875 0.520966,-0.12311 1.04171,-0.25164 1.5625,-0.375 z m -2.15625,0.5 c -0.313606,2.62013 -0.43502,4.17355 -2.65625,6.65625 l -0.78125,-1.5625 c 0.985283,-1.57612 1.594398,-3.14059 1.875,-4.71875 0.520905,-0.12276 1.041466,-0.25195 1.5625,-0.375 z m -16.15625,0.21875 0.3125,0.625 c -0.803318,0.18852 -1.630657,0.37502 -2.437508,0.5625 l -0.4375,-1.03125 2.562508,-0.15625 z m 14.125,0.28125 c -0.265007,1.33549 -0.804657,2.68913 -1.65625,4.09375 l -1.625,-3.34375 c 1.09256,-0.25527 2.188492,-0.49265 3.28125,-0.75 z m -22.625008,0.5625 2.25,0.0313 0.5625,1.125 c -0.713219,0.16215 -1.403702,0.33879 -2.125,0.5 l -0.6875,-1.65625 z m 18.812508,0.3125 1.78125,3.78125 c -0.555664,0.83908 -1.205437,1.69726 -2,2.5625 l -2.28125,-5.75 c 0.834152,-0.19313 1.665924,-0.39916 2.5,-0.59375 z m -3.21875,0.75 2.53125,6.09375 c -0.270134,0.27904 -0.547249,0.56192 -0.84375,0.84375 l -3.65625,0.65625 -3.125,-6.40625 c 1.700684,-0.38514 3.394485,-0.795 5.09375,-1.1875 z m -19.281258,0.125 0.625,1.28125 c -0.697151,0.15033 -1.38475,0.31939 -2.09375,0.46875 l -0.6875,-1.625 2.15625,-0.125 z m 60.5,0.4375 c 0.50319,0.35864 1.0871,0.6278 1.75,0.78125 l -11.71875,2.09375 c 0.53563,-0.38085 0.99025,-0.84839 1.40625,-1.34375 l 8.5625,-1.53125 z m -42.156242,0.34375 -2.78125,0.71875 2.28125,5.40625 2.71875,-0.5625 -2.21875,-5.5625 z m 50.031242,0.0937 0.28125,0.65625 -2.71875,0.5625 -0.28125,-0.71875 2.71875,-0.5 z m -54.687492,0.28125 3.03125,6.40625 -3,0.53125 -2.593758,-6.34375 c 0.856148,-0.19114 1.706993,-0.40043 2.562508,-0.59375 z m 4.21875,0.375 1.90625,4.4375 -1.53125,0.5 -2.03125,-4.59375 1.65625,-0.34375 z m 45.062492,0.3125 0.3125,0.53125 -3.125,0.75 -0.3125,-0.75 3.125,-0.53125 z m -52.53125,0.0625 2.593758,6.3125 -1.593758,0.28125 -3.03125,-6.15625 c 0.676109,-0.14881 1.355648,-0.28719 2.03125,-0.4375 z m 19.843758,0.4375 -2.78125,0.71875 1.15625,2.15625 2.71875,-0.5625 -1.09375,-2.3125 z m -22.531258,0.15625 3.03125,6.125 -2.84375,0.5 -2.53125,-6.125 c 0.7808,-0.16888 1.563759,-0.32895 2.34375,-0.5 z m 49.1875,0.40625 0.125,0.28125 -3.28125,0.6875 -0.15625,-0.40625 3.3125,-0.5625 z m -27.093742,0.1875 0.78125,1.1875 -1.53125,0.5 -0.90625,-1.34375 1.65625,-0.34375 z m -25.031258,0.0313 2.375,6.125 -1.75,0.3125 -3.03125,-5.9375 c 0.80191,-0.17013 1.605339,-0.3274 2.40625,-0.5 z m 19.718758,0.3125 0.71875,1.46875 c -0.420525,0.43781 -0.909401,0.89873 -1.46875,1.40625 l -1.0625,0.1875 -0.25,-0.5625 c 0.798523,-0.84413 1.495049,-1.67375 2.0625,-2.5 z m 19.125,0.0313 1.71875,0.875 -25.937508,4.4375 1.937508,-1.5625 22.28125,-3.75 z m -41.781258,0.28125 2.9375,5.90625 -2.75,0.5 -2.5,-5.9375 c 0.769539,-0.16001 1.544022,-0.3063 2.3125,-0.46875 z m 49.21875,0.15625 0.3125,0.65625 -3.375,0.78125 -0.343742,-0.8125 3.406242,-0.625 z m -6.281242,1.125 0.25,0.5 -2.9375,0.6875 -0.3125,-0.6875 3,-0.5 z m -19.40625,0.25 0.34375,0.6875 -1.40625,0.25 c 0.399025,-0.33753 0.73645,-0.63574 1.0625,-0.9375 z m 12.40625,0.96875 0.28125,0.5625 -3.03125,0.5 -0.21875,-0.53125 2.96875,-0.53125 z m -15.8125,0.1875 0.0625,0.1875 -0.3125,0.0625 c 0.08706,-0.0851 0.165421,-0.16513 0.25,-0.25 z m 4.78125,1.75 0.28125,0.59375 -3.125,0.78125 -0.3125,-0.8125 3.15625,-0.5625 z m -9,1.59375 0.34375,0.71875 -3.125,0.6875 -0.34375,-0.875 3.125,-0.53125 z m -5.90625,1.03125 0.25,0.5 -2.968758,0.78125 -0.3125,-0.75 3.031258,-0.53125 z m -5.968758,1.03125 0.46875,0.96875 -2.875,0.78125 -0.53125,-1.21875 2.9375,-0.53125 z"
         inkscape:connector-curvature="0"
         style="fill:#000000;fill-rule:evenodd;stroke-width:1px" />
      <path
         id="path2372"
         d=""
         inkscape:connector-curvature="0"
         style="fill:none;stroke:#000000;stroke-width:1px" />
    </g>
  </g>
</svg>
