<?xml version="1.0" encoding="UTF-8" standalone="no"?>
<!-- Generator: Adobe Illustrator 18.0.0, SVG Export Plug-In . SVG Version: 6.00 Build 0)  -->

<svg
   xmlns:dc="http://purl.org/dc/elements/1.1/"
   xmlns:cc="http://creativecommons.org/ns#"
   xmlns:rdf="http://www.w3.org/1999/02/22-rdf-syntax-ns#"
   xmlns:svg="http://www.w3.org/2000/svg"
   xmlns="http://www.w3.org/2000/svg"
   xmlns:sodipodi="http://sodipodi.sourceforge.net/DTD/sodipodi-0.dtd"
   xmlns:inkscape="http://www.inkscape.org/namespaces/inkscape"
   version="1.1"
   id="Capa_1"
   x="0px"
   y="0px"
   viewBox="0 0 470.977 470.977"
   style="enable-background:new 0 0 470.977 470.977;"
   xml:space="preserve"
   inkscape:version="0.91 r13725"
   sodipodi:docname="hematite.svg"><metadata
     id="metadata39"><rdf:RDF><cc:Work
         rdf:about=""><dc:format>image/svg+xml</dc:format><dc:type
           rdf:resource="http://purl.org/dc/dcmitype/StillImage" /><dc:title></dc:title></cc:Work></rdf:RDF></metadata><defs
     id="defs37" /><sodipodi:namedview
     pagecolor="#ffffff"
     bordercolor="#666666"
     borderopacity="1"
     objecttolerance="10"
     gridtolerance="10"
     guidetolerance="10"
     inkscape:pageopacity="0"
     inkscape:pageshadow="2"
     inkscape:window-width="1440"
     inkscape:window-height="775"
     id="namedview35"
     showgrid="false"
     inkscape:zoom="1.0021721"
     inkscape:cx="225.27434"
     inkscape:cy="195.96242"
     inkscape:window-x="0"
     inkscape:window-y="1"
     inkscape:window-maximized="1"
     inkscape:current-layer="Capa_1" /><g
     id="g4230"><path
       sodipodi:nodetypes="ccccccccccccccccccsccsccc"
       inkscape:connector-curvature="0"
       id="path3"
       d="m 293.87746,6.409056 c -1.26802,0.0047 -2.55318,0.497722 -3.74548,1.529588 L 246.81844,45.457759 221.51488,26.670352 c -3.23333,-2.399758 -7.07223,-1.04836 -9.36988,3.295007 l -42.28773,79.921761 -20.03687,-7.71345 c -3.55856,-1.36841 -7.24146,1.33889 -8.89707,6.54088 l -35.00029,110.0484 -28.247327,0.36685 c -3.213334,0.0419 -6.087921,3.18185 -7.273056,7.93943 l -24.4299,98.12943 -10.368935,-7.56605 c -1.946103,-1.42041 -4.171617,-1.51944 -6.162979,-0.27513 -1.993466,1.24264 -3.583293,3.71912 -4.407413,6.86513 L 8.5092871,423.63725 c 0,0 358.9619229,-3.20131 459.9564329,-3.20131 -11.65855,-41.10143 -28.11884,-110.69928 -41.09217,-176.54452 -1.09462,-5.08292 -13.07657,-8.49625 -16.44884,-8.49625 l -16.63512,0 -11.45357,-128.76684 C 381.61931,101.9093 375.74243,91.8416 372.54068,91.8416 l -28.96308,0 -42.76423,-78.927701 c -1.44069,-4.162051 -4.1463,-6.514967 -6.93591,-6.504843 z"
       style="fill:#784421" /><g
       transform="translate(0,2)"
       id="g5" /><g
       transform="translate(0,2)"
       id="g7" /><g
       transform="translate(0,2)"
       id="g9" /><g
       transform="translate(0,2)"
       id="g11" /><g
       transform="translate(0,2)"
       id="g13" /><g
       transform="translate(0,2)"
       id="g15" /><g
       transform="translate(0,2)"
       id="g17" /><g
       transform="translate(0,2)"
       id="g19" /><g
       transform="translate(0,2)"
       id="g21" /><g
       transform="translate(0,2)"
       id="g23" /><g
       transform="translate(0,2)"
       id="g25" /><g
       transform="translate(0,2)"
       id="g27" /><g
       transform="translate(0,2)"
       id="g29" /><g
       transform="translate(0,2)"
       id="g31" /><g
       transform="translate(0,2)"
       id="g33" /><path
       sodipodi:nodetypes="csssccccccccsssscc"
       inkscape:connector-curvature="0"
       id="path4167"
       d="m 170.64467,238.25065 c -4.142,0 -7.5,4.35001 -7.5,9.71564 l 0,31.85666 c 0,5.36562 3.358,9.71563 7.5,9.71563 l 1.51172,0 -14.80859,132.48432 39.55859,-0.18971 15.22657,-132.29457 70.35156,0 15.17578,131.81131 39.51953,-0.19219 -14.71094,-131.61902 1.50782,0 c 4.143,0 7.5,-4.35001 7.5,-9.71563 l 0,-31.85666 c 0,-5.36562 -3.357,-9.71564 -7.5,-9.71564 l -153.33204,0 z"
       style="fill:#ca9158;fill-opacity:1;fill-rule:evenodd;stroke:none;stroke-width:1px;stroke-linecap:butt;stroke-linejoin:miter;stroke-opacity:1" /><path
       style="fill:#6c5d53"
       sodipodi:nodetypes="ccccccccccc"
       inkscape:connector-curvature="0"
       id="path4179"
       d="m 117.75756,329.31938 c -0.43308,0.009 -0.86956,0.0948 -1.3061,0.25858 l -32.425087,12.15387 c -2.468513,0.9268 -4.646177,4.30852 -5.969789,9.28296 L 58.978506,422.6661 c -40.868867,0.11014 78.228724,0.10665 89.265234,0.1056 l -0.0115,-0.1056 -1.72495,0 -21.26467,-83.46743 c -1.58693,-6.23223 -4.45378,-9.93061 -7.48532,-9.87929 z" /><path
       style="fill:#6c5d53"
       sodipodi:nodetypes="sccccccs"
       inkscape:connector-curvature="0"
       id="path4184"
       d="m 417.4895,368.17672 c -0.61541,0.0179 -1.23566,0.0892 -1.85483,0.21673 l -33.17659,6.84042 c -3.34891,0.69012 -6.2027,2.93964 -7.72748,6.08927 l -19.0494,39.34426 93.00334,-0.89661 -20.90133,-45.10992 c -1.90838,-4.12059 -5.98587,-6.60989 -10.29371,-6.48415 z" /><path
       sodipodi:nodetypes="ccccc"
       inkscape:connector-curvature="0"
       id="path4189"
       d="m 211.64714,287.06781 70.35352,0 15.35351,134.88181 -101.05469,0 z" /></g></svg>
