<?xml version="1.0" encoding="iso-8859-1"?>
<!-- Generator: Adobe Illustrator 19.0.0, SVG Export Plug-In . SVG Version: 6.00 Build 0)  -->
<svg version="1.1" id="Layer_1" xmlns="http://www.w3.org/2000/svg" xmlns:xlink="http://www.w3.org/1999/xlink" x="0px" y="0px"
	 viewBox="0 0 512 512" style="enable-background:new 0 0 512 512;" xml:space="preserve">
<g>
	<polygon style="fill:#368CD6;" points="512,454.621 0,454.621 0,172.138 256,57.379 512,172.138 	"/>
	<path style="fill:#4CAF50;" d="M256,428.017c-4.882,0-8.828-3.946-8.828-8.828v-236.27c0-4.873,3.946-8.828,8.828-8.828
		s8.828,3.955,8.828,8.828v236.27C264.828,424.071,260.882,428.017,256,428.017"/>
	<g>
		<path style="fill:#81C784;" d="M256,269.241c0-39.036,31.585-70.621,70.621-70.621C326.621,237.656,295.036,269.241,256,269.241"
			/>
		<path style="fill:#81C784;" d="M256,375.172c0-39.036,31.585-70.621,70.621-70.621C326.621,343.587,295.036,375.172,256,375.172"
			/>
		<path style="fill:#81C784;" d="M185.379,251.586c39.036,0,70.621,31.585,70.621,70.621
			C216.964,322.207,185.379,290.622,185.379,251.586"/>
	</g>
	<path style="fill:#4CAF50;" d="M97.103,428.017c-4.882,0-8.828-3.946-8.828-8.828v-236.27c0-4.873,3.946-8.828,8.828-8.828
		s8.828,3.955,8.828,8.828v236.27C105.931,424.071,101.985,428.017,97.103,428.017"/>
	<g>
		<path style="fill:#81C784;" d="M97.103,269.241c0-39.036,31.585-70.621,70.621-70.621
			C167.724,237.656,136.139,269.241,97.103,269.241"/>
		<path style="fill:#81C784;" d="M97.103,375.172c0-39.036,31.585-70.621,70.621-70.621
			C167.724,343.587,136.139,375.172,97.103,375.172"/>
		<path style="fill:#81C784;" d="M26.483,251.586c39.036,0,70.621,31.585,70.621,70.621
			C58.068,322.207,26.483,290.622,26.483,251.586"/>
	</g>
	<path style="fill:#4CAF50;" d="M414.897,428.017c-4.882,0-8.828-3.946-8.828-8.828v-236.27c0-4.873,3.946-8.828,8.828-8.828
		c4.882,0,8.828,3.955,8.828,8.828v236.27C423.724,424.071,419.778,428.017,414.897,428.017"/>
	<g>
		<path style="fill:#81C784;" d="M414.897,269.241c0-39.036,31.585-70.621,70.621-70.621
			C485.517,237.656,453.932,269.241,414.897,269.241"/>
		<path style="fill:#81C784;" d="M414.897,375.172c0-39.036,31.585-70.621,70.621-70.621
			C485.517,343.587,453.932,375.172,414.897,375.172"/>
		<path style="fill:#81C784;" d="M344.276,251.586c39.036,0,70.621,31.585,70.621,70.621
			C375.861,322.207,344.276,290.622,344.276,251.586"/>
	</g>
	<polygon style="fill:#9E5A23;" points="35.31,454.621 476.69,454.621 476.69,419.31 35.31,419.31 	"/>
</g>
<g>
</g>
<g>
</g>
<g>
</g>
<g>
</g>
<g>
</g>
<g>
</g>
<g>
</g>
<g>
</g>
<g>
</g>
<g>
</g>
<g>
</g>
<g>
</g>
<g>
</g>
<g>
</g>
<g>
</g>
</svg>
