<?xml version="1.0" encoding="UTF-8" standalone="no"?>
<!-- Created with Inkscape (http://www.inkscape.org/) -->

<svg
   xmlns:dc="http://purl.org/dc/elements/1.1/"
   xmlns:cc="http://creativecommons.org/ns#"
   xmlns:rdf="http://www.w3.org/1999/02/22-rdf-syntax-ns#"
   xmlns:svg="http://www.w3.org/2000/svg"
   xmlns="http://www.w3.org/2000/svg"
   xmlns:sodipodi="http://sodipodi.sourceforge.net/DTD/sodipodi-0.dtd"
   xmlns:inkscape="http://www.inkscape.org/namespaces/inkscape"
   width="210mm"
   height="210mm"
   viewBox="0 0 744.09449 744.09448"
   id="svg4307"
   version="1.1"
   inkscape:version="0.91 r13725"
   sodipodi:docname="solar.svg">
  <sodipodi:namedview
     id="base"
     pagecolor="#ffffff"
     bordercolor="#666666"
     borderopacity="1.0"
     inkscape:pageopacity="0.0"
     inkscape:pageshadow="2"
     inkscape:zoom="0.67471073"
     inkscape:cx="359.45742"
     inkscape:cy="357.29598"
     inkscape:document-units="px"
     inkscape:current-layer="layer1"
     showgrid="false"
     inkscape:window-width="1440"
     inkscape:window-height="775"
     inkscape:window-x="0"
     inkscape:window-y="1"
     inkscape:window-maximized="1" />
  <defs
     id="defs4309">
    <inkscape:perspective
       id="perspective4993"
       inkscape:persp3d-origin="372.04724 : 248.03149 : 1"
       inkscape:vp_z="744.09449 : 372.04724 : 1"
       inkscape:vp_y="0 : 1000 : 0"
       inkscape:vp_x="0 : 372.04724 : 1"
       sodipodi:type="inkscape:persp3d" />
  </defs>
  <metadata
     id="metadata4312">
    <rdf:RDF>
      <cc:Work
         rdf:about="">
        <dc:format>image/svg+xml</dc:format>
        <dc:type
           rdf:resource="http://purl.org/dc/dcmitype/StillImage" />
        <dc:title></dc:title>
      </cc:Work>
    </rdf:RDF>
  </metadata>
  <g
     transform="translate(0,-308.26772)"
     id="layer1"
     inkscape:groupmode="layer"
     inkscape:label="Layer 1">
    <g
       id="g6908"
       transform="matrix(0.82129692,0.39708255,-0.31937121,1.0211399,325.91417,-139.74133)">
      <path
         sodipodi:nodetypes="ccccc"
         inkscape:connector-curvature="0"
         id="path6687"
         d="M 721.82819,569.77334 630.60577,320.09255 214.11335,500.26642 150.42149,761.26203 Z"
         style="fill:#ffffff;fill-rule:evenodd;stroke:none;stroke-width:0.73984212px;stroke-linecap:butt;stroke-linejoin:miter;stroke-opacity:1" />
      <g
         style="stroke:none"
         transform="matrix(2.7207978,-3.025404,2.6760916,2.0396194,-2472.131,2044.587)"
         id="g5435">
        <path
           inkscape:connector-curvature="0"
           id="rect5017"
           d="m 717.54967,299.59302 c 0,0 9.07374,6.74795 9.07374,6.74795 0,0 -3.04201,4.0942 -3.04201,4.0942 0,0 -9.24333,-7.02938 -9.24333,-7.02938 0,0 3.2116,-3.81277 3.2116,-3.81277"
           style="opacity:1;fill:#ffffff;fill-opacity:1;stroke:none;stroke-width:1.39032245;stroke-miterlimit:4;stroke-dasharray:none;stroke-opacity:1" />
        <path
           style="opacity:1;fill:#183ca3;fill-opacity:1;stroke:none;stroke-width:2;stroke-miterlimit:4;stroke-dasharray:none;stroke-opacity:1"
           d="m 712.62602,307.60699 c 0,0 3.13931,-8.57198 3.13931,-8.57198 0,0 12.16127,3.30891 12.16127,3.30891 0,0 -2.48165,8.7492 -2.48165,8.7492 0,0 -12.81893,-3.48613 -12.81893,-3.48613"
           id="rect5039"
           inkscape:connector-curvature="0" />
        <path
           style="opacity:1;fill:#183ca3;fill-opacity:1;stroke:none;stroke-width:2;stroke-miterlimit:4;stroke-dasharray:none;stroke-opacity:1"
           d="m 707.93303,304.76161 c 0,0 14.5646,8.83056 14.5646,8.83056 0,0 10.08005,-8.54693 10.08005,-8.54693 0,0 -13.95074,-8.10251 -13.95074,-8.10251 0,0 -10.69391,7.81888 -10.69391,7.81888"
           id="rect5061"
           inkscape:connector-curvature="0" />
        <path
           style="opacity:1;fill:#183ca3;fill-opacity:1;stroke:none;stroke-width:2;stroke-miterlimit:4;stroke-dasharray:none;stroke-opacity:1"
           d="m 680.00263,304.32622 c 0,0 14.38822,9.17832 14.38822,9.17832 0,0 12.22791,-8.8678 12.22791,-8.8678 0,0 -13.81638,-8.39383 -13.81638,-8.39383 0,0 -12.79975,8.08331 -12.79975,8.08331"
           id="rect5063"
           inkscape:connector-curvature="0" />
        <path
           style="opacity:1;fill:#183ca3;fill-opacity:1;stroke:none;stroke-width:2;stroke-miterlimit:4;stroke-dasharray:none;stroke-opacity:1"
           d="m 695.23702,314.04432 c 0,0 15.25246,9.72963 15.25246,9.72963 0,0 11.53309,-9.77897 11.53309,-9.77897 0,0 -14.59271,-8.86548 -14.59271,-8.86548 0,0 -12.19284,8.91482 -12.19284,8.91482"
           id="rect5065"
           inkscape:connector-curvature="0" />
        <path
           style="opacity:1;fill:#183ca3;fill-opacity:1;stroke:none;stroke-width:2;stroke-miterlimit:4;stroke-dasharray:none;stroke-opacity:1"
           d="m 664.60626,314.04934 c 0,0 15.02136,10.16164 15.02136,10.16164 0,0 14.08313,-10.21322 14.08313,-10.21322 0,0 -14.41876,-9.22276 -14.41876,-9.22276 0,0 -14.68573,9.27434 -14.68573,9.27434"
           id="rect5067"
           inkscape:connector-curvature="0" />
        <path
           style="opacity:1;fill:#183ca3;fill-opacity:1;stroke:none;stroke-width:2;stroke-miterlimit:4;stroke-dasharray:none;stroke-opacity:1"
           d="m 680.51293,324.80988 c 0,0 15.99421,10.81976 15.99421,10.81976 0,0 13.33961,-11.31072 13.33961,-11.31072 0,0 -15.28794,-9.77872 -15.28794,-9.77872 0,0 -14.04588,10.26968 -14.04588,10.26968"
           id="rect5069"
           inkscape:connector-curvature="0" />
        <path
           style="opacity:1;fill:#183ca3;fill-opacity:1;stroke:none;stroke-width:2;stroke-miterlimit:4;stroke-dasharray:none;stroke-opacity:1"
           d="m 646.90796,325.22619 c 0,0 15.67488,11.34583 15.67488,11.34583 0,0 16.37604,-11.87606 16.37604,-11.87606 0,0 -15.04856,-10.20712 -15.04856,-10.20712 0,0 -17.00236,10.73735 -17.00236,10.73735"
           id="rect5071"
           inkscape:connector-curvature="0" />
        <path
           style="opacity:1;fill:#183ca3;fill-opacity:1;stroke:none;stroke-width:2;stroke-miterlimit:4;stroke-dasharray:none;stroke-opacity:1"
           d="m 663.50896,337.24237 c 0,0 16.77556,12.14252 16.77556,12.14252 0,0 15.58775,-13.21694 15.58775,-13.21694 0,0 -16.02639,-10.87036 -16.02639,-10.87036 0,0 -16.33692,11.94478 -16.33692,11.94478"
           id="rect5073"
           inkscape:connector-curvature="0" />
        <path
           style="opacity:1;fill:#183ca3;fill-opacity:1;stroke:none;stroke-width:2;stroke-miterlimit:4;stroke-dasharray:none;stroke-opacity:1"
           d="m 693.33158,295.90871 c 0,0 13.79184,8.36204 13.79184,8.36204 0,0 10.72676,-7.77915 10.72676,-7.77915 0,0 -13.25307,-7.69731 -13.25307,-7.69731 0,0 -11.26553,7.11442 -11.26553,7.11442"
           id="rect5075"
           inkscape:connector-curvature="0" />
        <path
           style="opacity:1;fill:#183ca3;fill-opacity:1;stroke:none;stroke-width:2;stroke-miterlimit:4;stroke-dasharray:none;stroke-opacity:1"
           d="m 723.35322,314.11093 c 0,0 15.40417,9.33959 15.40417,9.33959 0,0 9.34347,-9.3895 9.34347,-9.3895 0,0 -14.705,-8.54058 -14.705,-8.54058 0,0 -10.04264,8.59049 -10.04264,8.59049"
           id="rect5091"
           inkscape:connector-curvature="0" />
        <path
           style="opacity:1;fill:#183ca3;fill-opacity:1;stroke:none;stroke-width:2;stroke-miterlimit:4;stroke-dasharray:none;stroke-opacity:1"
           d="m 739.66303,323.99961 c 0,0 16.31849,9.89395 16.31849,9.89395 0,0 8.50447,-10.31616 8.50447,-10.31616 0,0 -15.52211,-9.01515 -15.52211,-9.01515 0,0 -9.30085,9.43736 -9.30085,9.43736"
           id="rect5093"
           inkscape:connector-curvature="0" />
        <path
           style="opacity:1;fill:#183ca3;fill-opacity:1;stroke:none;stroke-width:2;stroke-miterlimit:4;stroke-dasharray:none;stroke-opacity:1"
           d="m 711.38724,324.34664 c 0,0 16.19696,10.33213 16.19696,10.33213 0,0 10.73205,-10.78493 10.73205,-10.78493 0,0 -15.43637,-9.37802 -15.43637,-9.37802 0,0 -11.49264,9.83082 -11.49264,9.83082"
           id="rect5095"
           inkscape:connector-curvature="0" />
        <path
           style="opacity:1;fill:#183ca3;fill-opacity:1;stroke:none;stroke-width:2;stroke-miterlimit:4;stroke-dasharray:none;stroke-opacity:1"
           d="m 728.53842,335.28748 c 0,0 17.23201,10.99239 17.23201,10.99239 0,0 9.80878,-11.8983 9.80878,-11.8983 0,0 -16.35536,-9.93634 -16.35536,-9.93634 0,0 -10.68543,10.84225 -10.68543,10.84225"
           id="rect5097"
           inkscape:connector-curvature="0" />
        <path
           style="opacity:1;fill:#183ca3;fill-opacity:1;stroke:none;stroke-width:2;stroke-miterlimit:4;stroke-dasharray:none;stroke-opacity:1"
           d="m 697.45071,336.26796 c 0,0 17.06475,11.54395 17.06475,11.54395 0,0 12.46939,-12.53084 12.46939,-12.53084 0,0 -16.23816,-10.38651 -16.23816,-10.38651 0,0 -13.29598,11.3734 -13.29598,11.3734"
           id="rect5099"
           inkscape:connector-curvature="0" />
        <path
           style="opacity:1;fill:#183ca3;fill-opacity:1;stroke:none;stroke-width:2;stroke-miterlimit:4;stroke-dasharray:none;stroke-opacity:1"
           d="m 715.52325,348.49367 c 0,0 18.24649,12.34337 18.24649,12.34337 0,0 11.45168,-13.8912 11.45168,-13.8912 0,0 -17.27981,-11.05279 -17.27981,-11.05279 0,0 -12.41836,12.60062 -12.41836,12.60062"
           id="rect5101"
           inkscape:connector-curvature="0" />
        <path
           style="opacity:1;fill:#183ca3;fill-opacity:1;stroke:none;stroke-width:2;stroke-miterlimit:4;stroke-dasharray:none;stroke-opacity:1"
           d="m 681.2768,350.10314 c 0,0 17.99637,13.02618 17.99637,13.02618 0,0 14.64739,-14.71958 14.64739,-14.71958 0,0 -17.10273,-11.60042 -17.10273,-11.60042 0,0 -15.54103,13.29382 -15.54103,13.29382"
           id="rect5103"
           inkscape:connector-curvature="0" />
        <path
           style="opacity:1;fill:#183ca3;fill-opacity:1;stroke:none;stroke-width:2;stroke-miterlimit:4;stroke-dasharray:none;stroke-opacity:1"
           d="m 700.33899,363.90078 c 0,0 19.35548,14.00993 19.35548,14.00993 0,0 13.52751,-16.40923 13.52751,-16.40923 0,0 -18.29127,-12.40657 -18.29127,-12.40657 0,0 -14.59172,14.80587 -14.59172,14.80587"
           id="rect5105"
           inkscape:connector-curvature="0" />
        <path
           style="opacity:1;fill:#183ca3;fill-opacity:1;stroke:none;stroke-width:2;stroke-miterlimit:4;stroke-dasharray:none;stroke-opacity:1"
           d="m 756.85429,334.42272 c 0,0 17.31158,10.49606 17.31158,10.49606 0,0 7.55352,-11.33232 7.55352,-11.33232 0,0 -16.40475,-9.52778 -16.40475,-9.52778 0,0 -8.46035,10.36404 -8.46035,10.36404"
           id="rect5123"
           inkscape:connector-curvature="0" />
        <path
           style="opacity:1;fill:#183ca3;fill-opacity:1;stroke:none;stroke-width:2;stroke-miterlimit:4;stroke-dasharray:none;stroke-opacity:1"
           d="m 775.18538,345.53691 c 0,0 18.40379,11.15827 18.40379,11.15827 0,0 6.46426,-12.46042 6.46426,-12.46042 0,0 -17.36981,-10.08829 -17.36981,-10.08829 0,0 -7.49824,11.39044 -7.49824,11.39044"
           id="rect5125"
           inkscape:connector-curvature="0" />
        <path
           style="opacity:1;fill:#183ca3;fill-opacity:1;stroke:none;stroke-width:2;stroke-miterlimit:4;stroke-dasharray:none;stroke-opacity:1"
           d="m 746.69409,346.86908 c 0,0 18.36368,11.7143 18.36368,11.7143 0,0 8.75005,-13.12743 8.75005,-13.12743 0,0 -17.35379,-10.54291 -17.35379,-10.54291 0,0 -9.75994,11.95604 -9.75994,11.95604"
           id="rect5127"
           inkscape:connector-curvature="0" />
        <path
           style="opacity:1;fill:#183ca3;fill-opacity:1;stroke:none;stroke-width:2;stroke-miterlimit:4;stroke-dasharray:none;stroke-opacity:1"
           d="m 766.14179,359.27488 c 0,0 19.6171,12.51385 19.6171,12.51385 0,0 7.5232,-14.50163 7.5232,-14.50163 0,0 -18.45218,-11.2102 -18.45218,-11.2102 0,0 -8.68812,13.19798 -8.68812,13.19798"
           id="rect5129"
           inkscape:connector-curvature="0" />
        <path
           style="opacity:1;fill:#183ca3;fill-opacity:1;stroke:none;stroke-width:2;stroke-miterlimit:4;stroke-dasharray:none;stroke-opacity:1"
           d="m 734.75029,361.50037 c 0,0 19.5486,13.22423 19.5486,13.22423 0,0 10.26797,-15.40473 10.26797,-15.40473 0,0 -18.41911,-11.78152 -18.41911,-11.78152 0,0 -11.39746,13.96202 -11.39746,13.96202"
           id="rect5131"
           inkscape:connector-curvature="0" />
        <path
           style="opacity:1;fill:#183ca3;fill-opacity:1;stroke:none;stroke-width:2;stroke-miterlimit:4;stroke-dasharray:none;stroke-opacity:1"
           d="m 755.45605,375.5074 c 0,0 21.00279,14.20796 21.00279,14.20796 0,0 8.87689,-17.11097 8.87689,-17.11097 0,0 -19.68144,-12.58896 -19.68144,-12.58896 0,0 -10.19824,15.49197 -10.19824,15.49197"
           id="rect5133"
           inkscape:connector-curvature="0" />
        <path
           style="opacity:1;fill:#183ca3;fill-opacity:1;stroke:none;stroke-width:2;stroke-miterlimit:4;stroke-dasharray:none;stroke-opacity:1"
           d="m 720.73777,378.66587 c 0,0 20.86669,15.10378 20.86669,15.10378 0,0 12.20194,-18.30619 12.20194,-18.30619 0,0 -19.60134,-13.29517 -19.60134,-13.29517 0,0 -13.46729,16.49758 -13.46729,16.49758"
           id="rect5135"
           inkscape:connector-curvature="0" />
        <path
           style="opacity:1;fill:#183ca3;fill-opacity:1;stroke:none;stroke-width:2;stroke-miterlimit:4;stroke-dasharray:none;stroke-opacity:1"
           d="m 742.84368,394.66663 c 0,0 22.57097,16.33737 22.57097,16.33737 0,0 10.61717,-20.46551 10.61717,-20.46551 0,0 -21.06499,-14.28793 -21.06499,-14.28793 0,0 -12.12315,18.41607 -12.12315,18.41607"
           id="rect5137"
           inkscape:connector-curvature="0" />
        <path
           inkscape:connector-curvature="0"
           id="rect5207"
           d="m 707.99663,304.08237 c 0,0 0.33358,1.42733 0.33358,1.42733 0,0 -2.15823,0.0401 -2.15823,0.0401 0,0 -0.31892,-1.43252 -0.31892,-1.43252 0,0 2.14357,-0.0349 2.14357,-0.0349"
           style="opacity:1;fill:#ffffff;fill-opacity:1;stroke:none;stroke-width:2;stroke-miterlimit:4;stroke-dasharray:none;stroke-opacity:1" />
        <path
           inkscape:connector-curvature="0"
           id="rect5209"
           d="m 723.37632,313.38705 c 0,0 0.45919,1.53785 0.45919,1.53785 0,0 -2.16414,0.0746 -2.16414,0.0746 0,0 -0.44453,-1.54383 -0.44453,-1.54383 0,0 2.14948,-0.0687 2.14948,-0.0687"
           style="opacity:1;fill:#ffffff;fill-opacity:1;stroke:none;stroke-width:2;stroke-miterlimit:4;stroke-dasharray:none;stroke-opacity:1" />
        <path
           inkscape:connector-curvature="0"
           id="rect5211"
           d="m 739.68613,323.18124 c 0,0 0.59913,1.65807 0.59913,1.65807 0,0 -2.1663,0.11303 -2.1663,0.11303 0,0 -0.58453,-1.66496 -0.58453,-1.66496 0,0 2.1517,-0.10614 2.1517,-0.10614"
           style="opacity:1;fill:#ffffff;fill-opacity:1;stroke:none;stroke-width:2;stroke-miterlimit:4;stroke-dasharray:none;stroke-opacity:1" />
        <path
           inkscape:connector-curvature="0"
           id="rect5213"
           d="m 756.77388,333.55482 c 0,0 0.75377,1.79052 0.75377,1.79052 0,0 -2.16619,0.15596 -2.16619,0.15596 0,0 -0.73932,-1.79845 -0.73932,-1.79845 0,0 2.15174,-0.14803 2.15174,-0.14803"
           style="opacity:1;fill:#ffffff;fill-opacity:1;stroke:none;stroke-width:2;stroke-miterlimit:4;stroke-dasharray:none;stroke-opacity:1" />
        <path
           inkscape:connector-curvature="0"
           id="rect5215"
           d="m 774.99891,344.50216 c 0,0 0.92691,1.93504 0.92691,1.93504 0,0 -2.16069,0.20373 -2.16069,0.20373 0,0 -0.91273,-1.94416 -0.91273,-1.94416 0,0 2.14651,-0.19461 2.14651,-0.19461"
           style="opacity:1;fill:#ffffff;fill-opacity:1;stroke:none;stroke-width:2;stroke-miterlimit:4;stroke-dasharray:none;stroke-opacity:1" />
        <path
           inkscape:connector-curvature="0"
           id="rect5217"
           d="m 765.89789,358.22247 c 0,0 0.92025,2.21267 0.92025,2.21267 0,0 -2.37311,0.27885 -2.37311,0.27885 0,0 -0.90303,-2.22434 -0.90303,-2.22434 0,0 2.35589,-0.26718 2.35589,-0.26718"
           style="opacity:1;fill:#ffffff;fill-opacity:1;stroke:none;stroke-width:2;stroke-miterlimit:4;stroke-dasharray:none;stroke-opacity:1" />
        <path
           inkscape:connector-curvature="0"
           id="rect5219"
           d="m 746.56096,345.91586 c 0,0 0.72398,2.03556 0.72398,2.03556 0,0 -2.37592,0.21922 -2.37592,0.21922 0,0 -0.70649,-2.04563 -0.70649,-2.04563 0,0 2.35843,-0.20915 2.35843,-0.20915"
           style="opacity:1;fill:#ffffff;fill-opacity:1;stroke:none;stroke-width:2;stroke-miterlimit:4;stroke-dasharray:none;stroke-opacity:1" />
        <path
           inkscape:connector-curvature="0"
           id="rect5221"
           d="m 728.48058,334.3659 c 0,0 0.55035,1.8756 0.55035,1.8756 0,0 -2.37329,0.16634 -2.37329,0.16634 0,0 -0.53276,-1.8843 -0.53276,-1.8843 0,0 2.3557,-0.15764 2.3557,-0.15764"
           style="opacity:1;fill:#ffffff;fill-opacity:1;stroke:none;stroke-width:2;stroke-miterlimit:4;stroke-dasharray:none;stroke-opacity:1" />
        <path
           inkscape:connector-curvature="0"
           id="rect5223"
           d="m 711.38467,323.48683 c 0,0 0.39521,1.7308 0.39521,1.7308 0,0 -2.36707,0.11928 -2.36707,0.11928 0,0 -0.37761,-1.73831 -0.37761,-1.73831 0,0 2.34947,-0.11177 2.34947,-0.11177"
           style="opacity:1;fill:#ffffff;fill-opacity:1;stroke:none;stroke-width:2;stroke-miterlimit:4;stroke-dasharray:none;stroke-opacity:1" />
        <path
           inkscape:connector-curvature="0"
           id="rect5225"
           d="m 695.29183,313.3272 c 0,0 0.25717,1.60084 0.25717,1.60084 0,0 -2.35848,0.0777 -2.35848,0.0777 0,0 -0.23963,-1.60734 -0.23963,-1.60734 0,0 2.34094,-0.0713 2.34094,-0.0713"
           style="opacity:1;fill:#ffffff;fill-opacity:1;stroke:none;stroke-width:2;stroke-miterlimit:4;stroke-dasharray:none;stroke-opacity:1" />
        <path
           inkscape:connector-curvature="0"
           id="rect5227"
           d="m 680.70604,323.89099 c 0,0 0.15317,1.81118 0.15317,1.81118 0,0 -2.59584,0.12654 -2.59584,0.12654 0,0 -0.1319,-1.8194 -0.1319,-1.8194 0,0 2.57457,-0.11832 2.57457,-0.11832"
           style="opacity:1;fill:#ffffff;fill-opacity:1;stroke:none;stroke-width:2;stroke-miterlimit:4;stroke-dasharray:none;stroke-opacity:1" />
        <path
           inkscape:connector-curvature="0"
           id="rect5229"
           d="m 697.58408,335.22502 c 0,0 0.30557,1.96874 0.30557,1.96874 0,0 -2.6101,0.17788 -2.6101,0.17788 0,0 -0.28411,-1.97832 -0.28411,-1.97832 0,0 2.58864,-0.1683 2.58864,-0.1683"
           style="opacity:1;fill:#ffffff;fill-opacity:1;stroke:none;stroke-width:2;stroke-miterlimit:4;stroke-dasharray:none;stroke-opacity:1" />
        <path
           inkscape:connector-curvature="0"
           id="rect5231"
           d="m 715.66045,347.36398 c 0,0 0.47904,2.14442 0.47904,2.14442 0,0 -2.62052,0.23619 -2.62052,0.23619 0,0 -0.45751,-2.15557 -0.45751,-2.15557 0,0 2.59899,-0.22504 2.59899,-0.22504"
           style="opacity:1;fill:#ffffff;fill-opacity:1;stroke:none;stroke-width:2;stroke-miterlimit:4;stroke-dasharray:none;stroke-opacity:1" />
        <path
           inkscape:connector-curvature="0"
           id="rect5233"
           d="m 734.7105,360.4219 c 0,0 0.67412,2.3425 0.67412,2.3425 0,0 -2.62912,0.30292 -2.62912,0.30292 0,0 -0.6526,-2.35552 -0.6526,-2.35552 0,0 2.6076,-0.2899 2.6076,-0.2899"
           style="opacity:1;fill:#ffffff;fill-opacity:1;stroke:none;stroke-width:2;stroke-miterlimit:4;stroke-dasharray:none;stroke-opacity:1" />
        <path
           inkscape:connector-curvature="0"
           id="rect5235"
           d="m 755.32379,374.16353 c 0,0 0.89749,2.55835 0.89749,2.55835 0,0 -2.62757,0.37728 -2.62757,0.37728 0,0 -0.87623,-2.57353 -0.87623,-2.57353 0,0 2.60631,-0.3621 2.60631,-0.3621"
           style="opacity:1;fill:#ffffff;fill-opacity:1;stroke:none;stroke-width:2;stroke-miterlimit:4;stroke-dasharray:none;stroke-opacity:1" />
      </g>
      <path
         style="fill:#ffffff;fill-rule:evenodd;stroke:none;stroke-width:0.93567699px;stroke-linecap:butt;stroke-linejoin:miter;stroke-opacity:1"
         d="M 735.1802,794.93626 619.81137,479.16542 93.074141,707.031 12.523162,1037.1117 Z"
         id="path6736"
         inkscape:connector-curvature="0"
         sodipodi:nodetypes="ccccc" />
      <g
         style="stroke:none"
         id="g6738"
         transform="matrix(3.4409882,-3.826223,3.3844483,2.579503,-3304.2143,2660.1305)">
        <path
           style="opacity:1;fill:#ffffff;fill-opacity:1;stroke:none;stroke-width:1.39032245;stroke-miterlimit:4;stroke-dasharray:none;stroke-opacity:1"
           d="m 717.54967,299.59302 c 0,0 9.07374,6.74795 9.07374,6.74795 0,0 -3.04201,4.0942 -3.04201,4.0942 0,0 -9.24333,-7.02938 -9.24333,-7.02938 0,0 3.2116,-3.81277 3.2116,-3.81277"
           id="path6740"
           inkscape:connector-curvature="0" />
        <path
           inkscape:connector-curvature="0"
           id="path6742"
           d="m 712.62602,307.60699 c 0,0 3.13931,-8.57198 3.13931,-8.57198 0,0 12.16127,3.30891 12.16127,3.30891 0,0 -2.48165,8.7492 -2.48165,8.7492 0,0 -12.81893,-3.48613 -12.81893,-3.48613"
           style="opacity:1;fill:#183ca3;fill-opacity:1;stroke:none;stroke-width:2;stroke-miterlimit:4;stroke-dasharray:none;stroke-opacity:1" />
        <path
           inkscape:connector-curvature="0"
           id="path6744"
           d="m 707.93303,304.76161 c 0,0 14.5646,8.83056 14.5646,8.83056 0,0 10.08005,-8.54693 10.08005,-8.54693 0,0 -13.95074,-8.10251 -13.95074,-8.10251 0,0 -10.69391,7.81888 -10.69391,7.81888"
           style="opacity:1;fill:#183ca3;fill-opacity:1;stroke:none;stroke-width:2;stroke-miterlimit:4;stroke-dasharray:none;stroke-opacity:1" />
        <path
           inkscape:connector-curvature="0"
           id="path6746"
           d="m 680.00263,304.32622 c 0,0 14.38822,9.17832 14.38822,9.17832 0,0 12.22791,-8.8678 12.22791,-8.8678 0,0 -13.81638,-8.39383 -13.81638,-8.39383 0,0 -12.79975,8.08331 -12.79975,8.08331"
           style="opacity:1;fill:#183ca3;fill-opacity:1;stroke:none;stroke-width:2;stroke-miterlimit:4;stroke-dasharray:none;stroke-opacity:1" />
        <path
           inkscape:connector-curvature="0"
           id="path6748"
           d="m 695.23702,314.04432 c 0,0 15.25246,9.72963 15.25246,9.72963 0,0 11.53309,-9.77897 11.53309,-9.77897 0,0 -14.59271,-8.86548 -14.59271,-8.86548 0,0 -12.19284,8.91482 -12.19284,8.91482"
           style="opacity:1;fill:#183ca3;fill-opacity:1;stroke:none;stroke-width:2;stroke-miterlimit:4;stroke-dasharray:none;stroke-opacity:1" />
        <path
           inkscape:connector-curvature="0"
           id="path6750"
           d="m 664.60626,314.04934 c 0,0 15.02136,10.16164 15.02136,10.16164 0,0 14.08313,-10.21322 14.08313,-10.21322 0,0 -14.41876,-9.22276 -14.41876,-9.22276 0,0 -14.68573,9.27434 -14.68573,9.27434"
           style="opacity:1;fill:#183ca3;fill-opacity:1;stroke:none;stroke-width:2;stroke-miterlimit:4;stroke-dasharray:none;stroke-opacity:1" />
        <path
           inkscape:connector-curvature="0"
           id="path6752"
           d="m 680.51293,324.80988 c 0,0 15.99421,10.81976 15.99421,10.81976 0,0 13.33961,-11.31072 13.33961,-11.31072 0,0 -15.28794,-9.77872 -15.28794,-9.77872 0,0 -14.04588,10.26968 -14.04588,10.26968"
           style="opacity:1;fill:#183ca3;fill-opacity:1;stroke:none;stroke-width:2;stroke-miterlimit:4;stroke-dasharray:none;stroke-opacity:1" />
        <path
           inkscape:connector-curvature="0"
           id="path6754"
           d="m 646.90796,325.22619 c 0,0 15.67488,11.34583 15.67488,11.34583 0,0 16.37604,-11.87606 16.37604,-11.87606 0,0 -15.04856,-10.20712 -15.04856,-10.20712 0,0 -17.00236,10.73735 -17.00236,10.73735"
           style="opacity:1;fill:#183ca3;fill-opacity:1;stroke:none;stroke-width:2;stroke-miterlimit:4;stroke-dasharray:none;stroke-opacity:1" />
        <path
           inkscape:connector-curvature="0"
           id="path6756"
           d="m 663.50896,337.24237 c 0,0 16.77556,12.14252 16.77556,12.14252 0,0 15.58775,-13.21694 15.58775,-13.21694 0,0 -16.02639,-10.87036 -16.02639,-10.87036 0,0 -16.33692,11.94478 -16.33692,11.94478"
           style="opacity:1;fill:#183ca3;fill-opacity:1;stroke:none;stroke-width:2;stroke-miterlimit:4;stroke-dasharray:none;stroke-opacity:1" />
        <path
           inkscape:connector-curvature="0"
           id="path6758"
           d="m 693.33158,295.90871 c 0,0 13.79184,8.36204 13.79184,8.36204 0,0 10.72676,-7.77915 10.72676,-7.77915 0,0 -13.25307,-7.69731 -13.25307,-7.69731 0,0 -11.26553,7.11442 -11.26553,7.11442"
           style="opacity:1;fill:#183ca3;fill-opacity:1;stroke:none;stroke-width:2;stroke-miterlimit:4;stroke-dasharray:none;stroke-opacity:1" />
        <path
           inkscape:connector-curvature="0"
           id="path6760"
           d="m 723.35322,314.11093 c 0,0 15.40417,9.33959 15.40417,9.33959 0,0 9.34347,-9.3895 9.34347,-9.3895 0,0 -14.705,-8.54058 -14.705,-8.54058 0,0 -10.04264,8.59049 -10.04264,8.59049"
           style="opacity:1;fill:#183ca3;fill-opacity:1;stroke:none;stroke-width:2;stroke-miterlimit:4;stroke-dasharray:none;stroke-opacity:1" />
        <path
           inkscape:connector-curvature="0"
           id="path6762"
           d="m 739.66303,323.99961 c 0,0 16.31849,9.89395 16.31849,9.89395 0,0 8.50447,-10.31616 8.50447,-10.31616 0,0 -15.52211,-9.01515 -15.52211,-9.01515 0,0 -9.30085,9.43736 -9.30085,9.43736"
           style="opacity:1;fill:#183ca3;fill-opacity:1;stroke:none;stroke-width:2;stroke-miterlimit:4;stroke-dasharray:none;stroke-opacity:1" />
        <path
           inkscape:connector-curvature="0"
           id="path6764"
           d="m 711.38724,324.34664 c 0,0 16.19696,10.33213 16.19696,10.33213 0,0 10.73205,-10.78493 10.73205,-10.78493 0,0 -15.43637,-9.37802 -15.43637,-9.37802 0,0 -11.49264,9.83082 -11.49264,9.83082"
           style="opacity:1;fill:#183ca3;fill-opacity:1;stroke:none;stroke-width:2;stroke-miterlimit:4;stroke-dasharray:none;stroke-opacity:1" />
        <path
           inkscape:connector-curvature="0"
           id="path6766"
           d="m 728.53842,335.28748 c 0,0 17.23201,10.99239 17.23201,10.99239 0,0 9.80878,-11.8983 9.80878,-11.8983 0,0 -16.35536,-9.93634 -16.35536,-9.93634 0,0 -10.68543,10.84225 -10.68543,10.84225"
           style="opacity:1;fill:#183ca3;fill-opacity:1;stroke:none;stroke-width:2;stroke-miterlimit:4;stroke-dasharray:none;stroke-opacity:1" />
        <path
           inkscape:connector-curvature="0"
           id="path6768"
           d="m 697.45071,336.26796 c 0,0 17.06475,11.54395 17.06475,11.54395 0,0 12.46939,-12.53084 12.46939,-12.53084 0,0 -16.23816,-10.38651 -16.23816,-10.38651 0,0 -13.29598,11.3734 -13.29598,11.3734"
           style="opacity:1;fill:#183ca3;fill-opacity:1;stroke:none;stroke-width:2;stroke-miterlimit:4;stroke-dasharray:none;stroke-opacity:1" />
        <path
           inkscape:connector-curvature="0"
           id="path6770"
           d="m 715.52325,348.49367 c 0,0 18.24649,12.34337 18.24649,12.34337 0,0 11.45168,-13.8912 11.45168,-13.8912 0,0 -17.27981,-11.05279 -17.27981,-11.05279 0,0 -12.41836,12.60062 -12.41836,12.60062"
           style="opacity:1;fill:#183ca3;fill-opacity:1;stroke:none;stroke-width:2;stroke-miterlimit:4;stroke-dasharray:none;stroke-opacity:1" />
        <path
           inkscape:connector-curvature="0"
           id="path6772"
           d="m 681.2768,350.10314 c 0,0 17.99637,13.02618 17.99637,13.02618 0,0 14.64739,-14.71958 14.64739,-14.71958 0,0 -17.10273,-11.60042 -17.10273,-11.60042 0,0 -15.54103,13.29382 -15.54103,13.29382"
           style="opacity:1;fill:#183ca3;fill-opacity:1;stroke:none;stroke-width:2;stroke-miterlimit:4;stroke-dasharray:none;stroke-opacity:1" />
        <path
           inkscape:connector-curvature="0"
           id="path6774"
           d="m 700.33899,363.90078 c 0,0 19.35548,14.00993 19.35548,14.00993 0,0 13.52751,-16.40923 13.52751,-16.40923 0,0 -18.29127,-12.40657 -18.29127,-12.40657 0,0 -14.59172,14.80587 -14.59172,14.80587"
           style="opacity:1;fill:#183ca3;fill-opacity:1;stroke:none;stroke-width:2;stroke-miterlimit:4;stroke-dasharray:none;stroke-opacity:1" />
        <path
           inkscape:connector-curvature="0"
           id="path6776"
           d="m 756.85429,334.42272 c 0,0 17.31158,10.49606 17.31158,10.49606 0,0 7.55352,-11.33232 7.55352,-11.33232 0,0 -16.40475,-9.52778 -16.40475,-9.52778 0,0 -8.46035,10.36404 -8.46035,10.36404"
           style="opacity:1;fill:#183ca3;fill-opacity:1;stroke:none;stroke-width:2;stroke-miterlimit:4;stroke-dasharray:none;stroke-opacity:1" />
        <path
           inkscape:connector-curvature="0"
           id="path6778"
           d="m 775.18538,345.53691 c 0,0 18.40379,11.15827 18.40379,11.15827 0,0 6.46426,-12.46042 6.46426,-12.46042 0,0 -17.36981,-10.08829 -17.36981,-10.08829 0,0 -7.49824,11.39044 -7.49824,11.39044"
           style="opacity:1;fill:#183ca3;fill-opacity:1;stroke:none;stroke-width:2;stroke-miterlimit:4;stroke-dasharray:none;stroke-opacity:1" />
        <path
           inkscape:connector-curvature="0"
           id="path6780"
           d="m 746.69409,346.86908 c 0,0 18.36368,11.7143 18.36368,11.7143 0,0 8.75005,-13.12743 8.75005,-13.12743 0,0 -17.35379,-10.54291 -17.35379,-10.54291 0,0 -9.75994,11.95604 -9.75994,11.95604"
           style="opacity:1;fill:#183ca3;fill-opacity:1;stroke:none;stroke-width:2;stroke-miterlimit:4;stroke-dasharray:none;stroke-opacity:1" />
        <path
           inkscape:connector-curvature="0"
           id="path6782"
           d="m 766.14179,359.27488 c 0,0 19.6171,12.51385 19.6171,12.51385 0,0 7.5232,-14.50163 7.5232,-14.50163 0,0 -18.45218,-11.2102 -18.45218,-11.2102 0,0 -8.68812,13.19798 -8.68812,13.19798"
           style="opacity:1;fill:#183ca3;fill-opacity:1;stroke:none;stroke-width:2;stroke-miterlimit:4;stroke-dasharray:none;stroke-opacity:1" />
        <path
           inkscape:connector-curvature="0"
           id="path6784"
           d="m 734.75029,361.50037 c 0,0 19.5486,13.22423 19.5486,13.22423 0,0 10.26797,-15.40473 10.26797,-15.40473 0,0 -18.41911,-11.78152 -18.41911,-11.78152 0,0 -11.39746,13.96202 -11.39746,13.96202"
           style="opacity:1;fill:#183ca3;fill-opacity:1;stroke:none;stroke-width:2;stroke-miterlimit:4;stroke-dasharray:none;stroke-opacity:1" />
        <path
           inkscape:connector-curvature="0"
           id="path6786"
           d="m 755.45605,375.5074 c 0,0 21.00279,14.20796 21.00279,14.20796 0,0 8.87689,-17.11097 8.87689,-17.11097 0,0 -19.68144,-12.58896 -19.68144,-12.58896 0,0 -10.19824,15.49197 -10.19824,15.49197"
           style="opacity:1;fill:#183ca3;fill-opacity:1;stroke:none;stroke-width:2;stroke-miterlimit:4;stroke-dasharray:none;stroke-opacity:1" />
        <path
           inkscape:connector-curvature="0"
           id="path6788"
           d="m 720.73777,378.66587 c 0,0 20.86669,15.10378 20.86669,15.10378 0,0 12.20194,-18.30619 12.20194,-18.30619 0,0 -19.60134,-13.29517 -19.60134,-13.29517 0,0 -13.46729,16.49758 -13.46729,16.49758"
           style="opacity:1;fill:#183ca3;fill-opacity:1;stroke:none;stroke-width:2;stroke-miterlimit:4;stroke-dasharray:none;stroke-opacity:1" />
        <path
           inkscape:connector-curvature="0"
           id="path6790"
           d="m 742.84368,394.66663 c 0,0 22.57097,16.33737 22.57097,16.33737 0,0 10.61717,-20.46551 10.61717,-20.46551 0,0 -21.06499,-14.28793 -21.06499,-14.28793 0,0 -12.12315,18.41607 -12.12315,18.41607"
           style="opacity:1;fill:#183ca3;fill-opacity:1;stroke:none;stroke-width:2;stroke-miterlimit:4;stroke-dasharray:none;stroke-opacity:1" />
        <path
           style="opacity:1;fill:#ffffff;fill-opacity:1;stroke:none;stroke-width:2;stroke-miterlimit:4;stroke-dasharray:none;stroke-opacity:1"
           d="m 707.99663,304.08237 c 0,0 0.33358,1.42733 0.33358,1.42733 0,0 -2.15823,0.0401 -2.15823,0.0401 0,0 -0.31892,-1.43252 -0.31892,-1.43252 0,0 2.14357,-0.0349 2.14357,-0.0349"
           id="path6792"
           inkscape:connector-curvature="0" />
        <path
           style="opacity:1;fill:#ffffff;fill-opacity:1;stroke:none;stroke-width:2;stroke-miterlimit:4;stroke-dasharray:none;stroke-opacity:1"
           d="m 723.37632,313.38705 c 0,0 0.45919,1.53785 0.45919,1.53785 0,0 -2.16414,0.0746 -2.16414,0.0746 0,0 -0.44453,-1.54383 -0.44453,-1.54383 0,0 2.14948,-0.0687 2.14948,-0.0687"
           id="path6794"
           inkscape:connector-curvature="0" />
        <path
           style="opacity:1;fill:#ffffff;fill-opacity:1;stroke:none;stroke-width:2;stroke-miterlimit:4;stroke-dasharray:none;stroke-opacity:1"
           d="m 739.68613,323.18124 c 0,0 0.59913,1.65807 0.59913,1.65807 0,0 -2.1663,0.11303 -2.1663,0.11303 0,0 -0.58453,-1.66496 -0.58453,-1.66496 0,0 2.1517,-0.10614 2.1517,-0.10614"
           id="path6796"
           inkscape:connector-curvature="0" />
        <path
           style="opacity:1;fill:#ffffff;fill-opacity:1;stroke:none;stroke-width:2;stroke-miterlimit:4;stroke-dasharray:none;stroke-opacity:1"
           d="m 756.77388,333.55482 c 0,0 0.75377,1.79052 0.75377,1.79052 0,0 -2.16619,0.15596 -2.16619,0.15596 0,0 -0.73932,-1.79845 -0.73932,-1.79845 0,0 2.15174,-0.14803 2.15174,-0.14803"
           id="path6798"
           inkscape:connector-curvature="0" />
        <path
           style="opacity:1;fill:#ffffff;fill-opacity:1;stroke:none;stroke-width:2;stroke-miterlimit:4;stroke-dasharray:none;stroke-opacity:1"
           d="m 774.99891,344.50216 c 0,0 0.92691,1.93504 0.92691,1.93504 0,0 -2.16069,0.20373 -2.16069,0.20373 0,0 -0.91273,-1.94416 -0.91273,-1.94416 0,0 2.14651,-0.19461 2.14651,-0.19461"
           id="path6800"
           inkscape:connector-curvature="0" />
        <path
           style="opacity:1;fill:#ffffff;fill-opacity:1;stroke:none;stroke-width:2;stroke-miterlimit:4;stroke-dasharray:none;stroke-opacity:1"
           d="m 765.89789,358.22247 c 0,0 0.92025,2.21267 0.92025,2.21267 0,0 -2.37311,0.27885 -2.37311,0.27885 0,0 -0.90303,-2.22434 -0.90303,-2.22434 0,0 2.35589,-0.26718 2.35589,-0.26718"
           id="path6802"
           inkscape:connector-curvature="0" />
        <path
           style="opacity:1;fill:#ffffff;fill-opacity:1;stroke:none;stroke-width:2;stroke-miterlimit:4;stroke-dasharray:none;stroke-opacity:1"
           d="m 746.56096,345.91586 c 0,0 0.72398,2.03556 0.72398,2.03556 0,0 -2.37592,0.21922 -2.37592,0.21922 0,0 -0.70649,-2.04563 -0.70649,-2.04563 0,0 2.35843,-0.20915 2.35843,-0.20915"
           id="path6804"
           inkscape:connector-curvature="0" />
        <path
           style="opacity:1;fill:#ffffff;fill-opacity:1;stroke:none;stroke-width:2;stroke-miterlimit:4;stroke-dasharray:none;stroke-opacity:1"
           d="m 728.48058,334.3659 c 0,0 0.55035,1.8756 0.55035,1.8756 0,0 -2.37329,0.16634 -2.37329,0.16634 0,0 -0.53276,-1.8843 -0.53276,-1.8843 0,0 2.3557,-0.15764 2.3557,-0.15764"
           id="path6806"
           inkscape:connector-curvature="0" />
        <path
           style="opacity:1;fill:#ffffff;fill-opacity:1;stroke:none;stroke-width:2;stroke-miterlimit:4;stroke-dasharray:none;stroke-opacity:1"
           d="m 711.38467,323.48683 c 0,0 0.39521,1.7308 0.39521,1.7308 0,0 -2.36707,0.11928 -2.36707,0.11928 0,0 -0.37761,-1.73831 -0.37761,-1.73831 0,0 2.34947,-0.11177 2.34947,-0.11177"
           id="path6808"
           inkscape:connector-curvature="0" />
        <path
           style="opacity:1;fill:#ffffff;fill-opacity:1;stroke:none;stroke-width:2;stroke-miterlimit:4;stroke-dasharray:none;stroke-opacity:1"
           d="m 695.29183,313.3272 c 0,0 0.25717,1.60084 0.25717,1.60084 0,0 -2.35848,0.0777 -2.35848,0.0777 0,0 -0.23963,-1.60734 -0.23963,-1.60734 0,0 2.34094,-0.0713 2.34094,-0.0713"
           id="path6810"
           inkscape:connector-curvature="0" />
        <path
           style="opacity:1;fill:#ffffff;fill-opacity:1;stroke:none;stroke-width:2;stroke-miterlimit:4;stroke-dasharray:none;stroke-opacity:1"
           d="m 680.70604,323.89099 c 0,0 0.15317,1.81118 0.15317,1.81118 0,0 -2.59584,0.12654 -2.59584,0.12654 0,0 -0.1319,-1.8194 -0.1319,-1.8194 0,0 2.57457,-0.11832 2.57457,-0.11832"
           id="path6812"
           inkscape:connector-curvature="0" />
        <path
           style="opacity:1;fill:#ffffff;fill-opacity:1;stroke:none;stroke-width:2;stroke-miterlimit:4;stroke-dasharray:none;stroke-opacity:1"
           d="m 697.58408,335.22502 c 0,0 0.30557,1.96874 0.30557,1.96874 0,0 -2.6101,0.17788 -2.6101,0.17788 0,0 -0.28411,-1.97832 -0.28411,-1.97832 0,0 2.58864,-0.1683 2.58864,-0.1683"
           id="path6814"
           inkscape:connector-curvature="0" />
        <path
           style="opacity:1;fill:#ffffff;fill-opacity:1;stroke:none;stroke-width:2;stroke-miterlimit:4;stroke-dasharray:none;stroke-opacity:1"
           d="m 715.66045,347.36398 c 0,0 0.47904,2.14442 0.47904,2.14442 0,0 -2.62052,0.23619 -2.62052,0.23619 0,0 -0.45751,-2.15557 -0.45751,-2.15557 0,0 2.59899,-0.22504 2.59899,-0.22504"
           id="path6816"
           inkscape:connector-curvature="0" />
        <path
           style="opacity:1;fill:#ffffff;fill-opacity:1;stroke:none;stroke-width:2;stroke-miterlimit:4;stroke-dasharray:none;stroke-opacity:1"
           d="m 734.7105,360.4219 c 0,0 0.67412,2.3425 0.67412,2.3425 0,0 -2.62912,0.30292 -2.62912,0.30292 0,0 -0.6526,-2.35552 -0.6526,-2.35552 0,0 2.6076,-0.2899 2.6076,-0.2899"
           id="path6818"
           inkscape:connector-curvature="0" />
        <path
           style="opacity:1;fill:#ffffff;fill-opacity:1;stroke:none;stroke-width:2;stroke-miterlimit:4;stroke-dasharray:none;stroke-opacity:1"
           d="m 755.32379,374.16353 c 0,0 0.89749,2.55835 0.89749,2.55835 0,0 -2.62757,0.37728 -2.62757,0.37728 0,0 -0.87623,-2.57353 -0.87623,-2.57353 0,0 2.60631,-0.3621 2.60631,-0.3621"
           id="path6820"
           inkscape:connector-curvature="0" />
      </g>
    </g>
  </g>
</svg>
