<?xml version="1.0" encoding="UTF-8" standalone="no"?>
<!-- Created with Inkscape (http://www.inkscape.org/) -->

<svg
   xmlns:dc="http://purl.org/dc/elements/1.1/"
   xmlns:cc="http://creativecommons.org/ns#"
   xmlns:rdf="http://www.w3.org/1999/02/22-rdf-syntax-ns#"
   xmlns:svg="http://www.w3.org/2000/svg"
   xmlns="http://www.w3.org/2000/svg"
   xmlns:sodipodi="http://sodipodi.sourceforge.net/DTD/sodipodi-0.dtd"
   xmlns:inkscape="http://www.inkscape.org/namespaces/inkscape"
   width="210mm"
   height="210mm"
   viewBox="0 0 744.09449 744.09448"
   id="svg4389"
   version="1.1"
   inkscape:version="0.91 r13725"
   sodipodi:docname="solar_.svg">
  <sodipodi:namedview
     id="base"
     pagecolor="#ffffff"
     bordercolor="#666666"
     borderopacity="1.0"
     inkscape:pageopacity="0.0"
     inkscape:pageshadow="2"
     inkscape:zoom="0.7"
     inkscape:cx="405.58466"
     inkscape:cy="377.92428"
     inkscape:document-units="px"
     inkscape:current-layer="layer1"
     showgrid="false"
     inkscape:window-width="1440"
     inkscape:window-height="775"
     inkscape:window-x="0"
     inkscape:window-y="1"
     inkscape:window-maximized="1" />
  <defs
     id="defs4391" />
  <metadata
     id="metadata4394">
    <rdf:RDF>
      <cc:Work
         rdf:about="">
        <dc:format>image/svg+xml</dc:format>
        <dc:type
           rdf:resource="http://purl.org/dc/dcmitype/StillImage" />
        <dc:title></dc:title>
      </cc:Work>
    </rdf:RDF>
  </metadata>
  <g
     transform="translate(0,-308.26772)"
     id="layer1"
     inkscape:groupmode="layer"
     inkscape:label="Layer 1">
    <path
       style="fill:#ac9393;fill-rule:evenodd;stroke:none;stroke-width:1px;stroke-linecap:butt;stroke-linejoin:miter;stroke-opacity:1"
       d="m 516.68446,970.49486 c 3.8213,7.10743 -5.15095,15.57075 -16.26394,16.49825 l -260.66096,7.69533 c -11.50536,1.07825 -17.13931,-7.94558 -12.04833,-18.24301 l 29.83349,-77.02237 233.79806,2.16816 z"
       id="path5247"
       inkscape:connector-curvature="0"
       sodipodi:nodetypes="ccccccc" />
    <g
       transform="matrix(0.85634908,0,0,0.9027564,104.29464,-193.45747)"
       id="g5124">
      <g
         transform="translate(0,-2.5157409e-6)"
         id="g5126">
        <path
           inkscape:connector-curvature="0"
           id="path5128"
           d="m 224.08759,619.60646 c 0,0 373.01816,-3.55254 373.01816,-3.55254 6.42967,-0.0617 13.18635,3.8238 15.18948,8.80312 0,0 118.79826,295.29827 118.79826,295.29827 5.35804,13.31862 1.07946,24.57223 -9.7696,24.8147 0,0 -635.899054,14.21017 -635.899054,14.21017 -11.401393,0.25481 -15.578373,-11.099 -9.550642,-25.00913 0,0 132.307696,-305.32551 132.307696,-305.32551 2.20919,-5.09822 9.28595,-9.17608 15.9057,-9.23908 0,0 0,0 0,0"
           style="opacity:1;fill:#c8b7b7;fill-opacity:1;stroke:none;stroke-width:2;stroke-miterlimit:4;stroke-dasharray:none;stroke-opacity:1" />
        <path
           inkscape:connector-curvature="0"
           id="path5130"
           d="m 350.35864,751.54425 c 0,0 120.41926,-1.76085 120.41926,-1.76085 6.37094,-0.0935 12.02046,4.80807 12.68195,11.10405 0,0 14.91233,141.9327 14.91233,141.9327 1.02377,9.74402 -4.70101,17.91152 -12.86442,18.08463 0,0 -154.51175,3.27848 -154.51175,3.27848 -8.26601,0.17573 -13.85826,-7.80838 -12.56445,-17.66868 0,0 18.81982,-143.42564 18.81982,-143.42564 0.83369,-6.35375 6.67399,-11.45066 13.10726,-11.54469 0,0 0,0 0,0"
           style="opacity:1;fill:#0000ff;fill-opacity:1;stroke:none;stroke-width:2;stroke-miterlimit:4;stroke-dasharray:none;stroke-opacity:1" />
        <path
           inkscape:connector-curvature="0"
           id="path5132"
           d="m 513.23467,749.16274 c 0,0 118.92524,-1.73898 118.92524,-1.73898 6.29209,-0.0916 13.18998,4.75966 15.51097,10.99114 0,0 52.24373,140.26737 52.24373,140.26737 3.58111,9.61466 0.0667,17.67205 -7.96752,17.84254 0,0 -152.05869,3.22614 -152.05869,3.22614 -8.13437,0.17199 -15.78694,-7.70332 -17.1224,-17.43163 0,0 -19.4561,-141.73079 -19.4561,-141.73079 -0.86322,-6.28813 3.57151,-11.33288 9.92477,-11.42579 0,0 0,0 0,0"
           style="opacity:1;fill:#0000ff;fill-opacity:1;stroke:none;stroke-width:2;stroke-miterlimit:4;stroke-dasharray:none;stroke-opacity:1" />
        <path
           inkscape:connector-curvature="0"
           id="path5134"
           d="m 364.11829,628.86218 c 0,0 96.1687,-0.95493 96.1687,-0.95493 5.09292,-0.0505 9.52486,3.08107 9.94501,7.08004 0,0 9.02883,85.93477 9.02883,85.93477 0.5903,5.6183 -3.89689,10.29046 -10.07409,10.37646 0,0 -116.73951,1.62381 -116.73951,1.62381 -6.23577,0.086 -10.64884,-4.48615 -9.90534,-10.15231 0,0 11.36275,-86.59562 11.36275,-86.59562 0.52831,-4.02627 5.08096,-7.26138 10.21365,-7.31222 0,0 0,0 0,0"
           style="opacity:1;fill:#0000ff;fill-opacity:1;stroke:none;stroke-width:2;stroke-miterlimit:4;stroke-dasharray:none;stroke-opacity:1" />
        <path
           inkscape:connector-curvature="0"
           id="path5136"
           d="m 494.23634,627.57019 c 0,0 95.21397,-0.94558 95.21397,-0.94558 5.04246,-0.0505 10.27306,3.05789 11.75101,7.02601 0,0 31.73136,85.19427 31.73136,85.19427 2.07261,5.56465 -1.14065,10.19176 -7.24369,10.27663 0,0 -115.335,1.60438 -115.335,1.60438 -6.16056,0.086 -11.75342,-4.44297 -12.52379,-10.05491 0,0 -11.78439,-85.84522 -11.78439,-85.84522 -0.54845,-3.99505 3.1089,-7.20529 8.19053,-7.25558 0,0 0,0 0,0"
           style="opacity:1;fill:#0000ff;fill-opacity:1;stroke:none;stroke-width:2;stroke-miterlimit:4;stroke-dasharray:none;stroke-opacity:1" />
        <path
           inkscape:connector-curvature="0"
           id="path5138"
           d="m 350.35864,751.54425 c 0,0 120.41926,-1.76085 120.41926,-1.76085 6.37094,-0.0935 12.02046,4.80807 12.68195,11.10405 0,0 14.91233,141.9327 14.91233,141.9327 1.02377,9.74402 -4.70101,17.91152 -12.86442,18.08463 0,0 -154.51175,3.27848 -154.51175,3.27848 -8.26601,0.17573 -13.85826,-7.80838 -12.56445,-17.66868 0,0 18.81982,-143.42564 18.81982,-143.42564 0.83369,-6.35375 6.67399,-11.45066 13.10726,-11.54469 0,0 0,0 0,0"
           style="opacity:1;fill:#0000ff;fill-opacity:1;stroke:none;stroke-width:2;stroke-miterlimit:4;stroke-dasharray:none;stroke-opacity:1" />
        <path
           inkscape:connector-curvature="0"
           id="path5140"
           d="m 364.11829,628.86218 c 0,0 96.1687,-0.95493 96.1687,-0.95493 5.09292,-0.0505 9.52486,3.08107 9.94501,7.08004 0,0 9.02883,85.93477 9.02883,85.93477 0.5903,5.6183 -3.89689,10.29046 -10.07409,10.37646 0,0 -116.73951,1.62381 -116.73951,1.62381 -6.23577,0.086 -10.64884,-4.48615 -9.90534,-10.15231 0,0 11.36275,-86.59562 11.36275,-86.59562 0.52831,-4.02627 5.08096,-7.26138 10.21365,-7.31222 0,0 0,0 0,0"
           style="opacity:1;fill:#0000ff;fill-opacity:1;stroke:none;stroke-width:2;stroke-miterlimit:4;stroke-dasharray:none;stroke-opacity:1" />
        <path
           inkscape:connector-curvature="0"
           id="path5142"
           d="m 185.42519,753.95604 c 0,0 121.94162,-1.78309 121.94162,-1.78309 6.45129,-0.0953 10.82027,4.85705 9.77967,11.21865 0,0 -23.49472,143.63185 -23.49472,143.63185 -1.61551,9.87619 -9.62147,18.15623 -17.91724,18.33233 0,0 -157.02465,3.33158 -157.02465,3.33158 -8.40086,0.1776 -11.86488,-7.91587 -7.85726,-17.91078 0,0 58.20221,-145.15527 58.20221,-145.15527 2.57429,-6.42011 9.85557,-11.57011 16.37037,-11.66527 0,0 0,0 0,0"
           style="opacity:1;fill:#0000ff;fill-opacity:1;stroke:none;stroke-width:2;stroke-miterlimit:4;stroke-dasharray:none;stroke-opacity:1" />
        <path
           inkscape:connector-curvature="0"
           id="path5144"
           d="m 232.68982,630.16706 c 0,0 97.13785,-0.96446 97.13785,-0.96446 5.14414,-0.0505 8.76105,3.10481 8.10182,7.13481 0,0 -14.17982,86.68648 -14.17982,86.68648 -0.92795,5.67289 -6.71987,10.39123 -12.97257,10.47816 0,0 -118.16986,1.64363 -118.16986,1.64363 -6.31234,0.0879 -9.51636,-4.53008 -7.22221,-10.25157 0,0 35.02727,-87.35725 35.02727,-87.35725 1.62709,-4.05804 7.09301,-7.3182 12.27752,-7.3698 0,0 0,0 0,0"
           style="opacity:1;fill:#0000ff;fill-opacity:1;stroke:none;stroke-width:2;stroke-miterlimit:4;stroke-dasharray:none;stroke-opacity:1" />
      </g>
      <path
         style="opacity:1;fill:#c8b7b7;fill-opacity:1;stroke:none;stroke-width:2;stroke-miterlimit:4;stroke-dasharray:none;stroke-opacity:1"
         d="m 224.08759,619.60646 c 0,0 373.01816,-3.55254 373.01816,-3.55254 6.42967,-0.0617 13.18635,3.8238 15.18948,8.80312 0,0 118.79826,295.29827 118.79826,295.29827 5.35804,13.31862 1.07946,24.57223 -9.7696,24.8147 0,0 -635.899054,14.21017 -635.899054,14.21017 -11.401393,0.25481 -15.578373,-11.099 -9.550642,-25.00913 0,0 132.307696,-305.32551 132.307696,-305.32551 2.20919,-5.09822 9.28595,-9.17608 15.9057,-9.23908 0,0 0,0 0,0"
         id="path5146"
         inkscape:connector-curvature="0" />
      <path
         style="opacity:1;fill:#0000ff;fill-opacity:1;stroke:none;stroke-width:2;stroke-miterlimit:4;stroke-dasharray:none;stroke-opacity:1"
         d="m 350.35864,751.54425 c 0,0 120.41926,-1.76085 120.41926,-1.76085 6.37094,-0.0935 12.02046,4.80807 12.68195,11.10405 0,0 14.91233,141.9327 14.91233,141.9327 1.02377,9.74402 -4.70101,17.91152 -12.86442,18.08463 0,0 -154.51175,3.27848 -154.51175,3.27848 -8.26601,0.17573 -13.85826,-7.80838 -12.56445,-17.66868 0,0 18.81982,-143.42564 18.81982,-143.42564 0.83369,-6.35375 6.67399,-11.45066 13.10726,-11.54469 0,0 0,0 0,0"
         id="path5148"
         inkscape:connector-curvature="0" />
      <path
         style="opacity:1;fill:#2424b6;fill-opacity:1;stroke:none;stroke-width:2;stroke-miterlimit:4;stroke-dasharray:none;stroke-opacity:1"
         d="m 513.23467,749.16274 c 0,0 118.92524,-1.73898 118.92524,-1.73898 6.29209,-0.0916 13.18998,4.75966 15.51097,10.99114 0,0 52.24373,140.26737 52.24373,140.26737 3.58111,9.61466 0.0667,17.67205 -7.96752,17.84254 0,0 -152.05869,3.22614 -152.05869,3.22614 -8.13437,0.17199 -15.78694,-7.70332 -17.1224,-17.43163 0,0 -19.4561,-141.73079 -19.4561,-141.73079 -0.86322,-6.28813 3.57151,-11.33288 9.92477,-11.42579 0,0 0,0 0,0"
         id="path5150"
         inkscape:connector-curvature="0" />
      <path
         style="opacity:1;fill:#0000ff;fill-opacity:1;stroke:none;stroke-width:2;stroke-miterlimit:4;stroke-dasharray:none;stroke-opacity:1"
         d="m 364.11829,628.86218 c 0,0 96.1687,-0.95493 96.1687,-0.95493 5.09292,-0.0505 9.52486,3.08107 9.94501,7.08004 0,0 9.02883,85.93477 9.02883,85.93477 0.5903,5.6183 -3.89689,10.29046 -10.07409,10.37646 0,0 -116.73951,1.62381 -116.73951,1.62381 -6.23577,0.086 -10.64884,-4.48615 -9.90534,-10.15231 0,0 11.36275,-86.59562 11.36275,-86.59562 0.52831,-4.02627 5.08096,-7.26138 10.21365,-7.31222 0,0 0,0 0,0"
         id="path5152"
         inkscape:connector-curvature="0" />
      <path
         style="opacity:1;fill:#2424b6;fill-opacity:1;stroke:none;stroke-width:2;stroke-miterlimit:4;stroke-dasharray:none;stroke-opacity:1"
         d="m 494.23634,627.57019 c 0,0 95.21397,-0.94558 95.21397,-0.94558 5.04246,-0.0505 10.27306,3.05789 11.75101,7.02601 0,0 31.73136,85.19427 31.73136,85.19427 2.07261,5.56465 -1.14065,10.19176 -7.24369,10.27663 0,0 -115.335,1.60438 -115.335,1.60438 -6.16056,0.086 -11.75342,-4.44297 -12.52379,-10.05491 0,0 -11.78439,-85.84522 -11.78439,-85.84522 -0.54845,-3.99505 3.1089,-7.20529 8.19053,-7.25558 0,0 0,0 0,0"
         id="path5154"
         inkscape:connector-curvature="0" />
      <path
         style="opacity:1;fill:#2424b6;fill-opacity:1;stroke:none;stroke-width:2;stroke-miterlimit:4;stroke-dasharray:none;stroke-opacity:1"
         d="m 350.35864,751.54425 c 0,0 120.41926,-1.76085 120.41926,-1.76085 6.37094,-0.0935 12.02046,4.80807 12.68195,11.10405 0,0 14.91233,141.9327 14.91233,141.9327 1.02377,9.74402 -4.70101,17.91152 -12.86442,18.08463 0,0 -154.51175,3.27848 -154.51175,3.27848 -8.26601,0.17573 -13.85826,-7.80838 -12.56445,-17.66868 0,0 18.81982,-143.42564 18.81982,-143.42564 0.83369,-6.35375 6.67399,-11.45066 13.10726,-11.54469 0,0 0,0 0,0"
         id="path5156"
         inkscape:connector-curvature="0" />
      <path
         style="opacity:1;fill:#2424b6;fill-opacity:1;stroke:none;stroke-width:2;stroke-miterlimit:4;stroke-dasharray:none;stroke-opacity:1"
         d="m 364.11829,628.86218 c 0,0 96.1687,-0.95493 96.1687,-0.95493 5.09292,-0.0505 9.52486,3.08107 9.94501,7.08004 0,0 9.02883,85.93477 9.02883,85.93477 0.5903,5.6183 -3.89689,10.29046 -10.07409,10.37646 0,0 -116.73951,1.62381 -116.73951,1.62381 -6.23577,0.086 -10.64884,-4.48615 -9.90534,-10.15231 0,0 11.36275,-86.59562 11.36275,-86.59562 0.52831,-4.02627 5.08096,-7.26138 10.21365,-7.31222 0,0 0,0 0,0"
         id="path5158"
         inkscape:connector-curvature="0" />
      <path
         style="opacity:1;fill:#2424b6;fill-opacity:1;stroke:none;stroke-width:2;stroke-miterlimit:4;stroke-dasharray:none;stroke-opacity:1"
         d="m 185.42519,753.95604 c 0,0 121.94162,-1.78309 121.94162,-1.78309 6.45129,-0.0953 10.82027,4.85705 9.77967,11.21865 0,0 -23.49472,143.63185 -23.49472,143.63185 -1.61551,9.87619 -9.62147,18.15623 -17.91724,18.33233 0,0 -157.02465,3.33158 -157.02465,3.33158 -8.40086,0.1776 -11.86488,-7.91587 -7.85726,-17.91078 0,0 58.20221,-145.15527 58.20221,-145.15527 2.57429,-6.42011 9.85557,-11.57011 16.37037,-11.66527 0,0 0,0 0,0"
         id="path5160"
         inkscape:connector-curvature="0" />
      <path
         style="opacity:1;fill:#2424b6;fill-opacity:1;stroke:none;stroke-width:2;stroke-miterlimit:4;stroke-dasharray:none;stroke-opacity:1"
         d="m 232.68982,630.16706 c 0,0 97.13785,-0.96446 97.13785,-0.96446 5.14414,-0.0505 8.76105,3.10481 8.10182,7.13481 0,0 -14.17982,86.68648 -14.17982,86.68648 -0.92795,5.67289 -6.71987,10.39123 -12.97257,10.47816 0,0 -118.16986,1.64363 -118.16986,1.64363 -6.31234,0.0879 -9.51636,-4.53008 -7.22221,-10.25157 0,0 35.02727,-87.35725 35.02727,-87.35725 1.62709,-4.05804 7.09301,-7.3182 12.27752,-7.3698 0,0 0,0 0,0"
         id="path5162"
         inkscape:connector-curvature="0" />
    </g>
    <path
       style="fill:#000000;fill-opacity:0.36942677;fill-rule:evenodd;stroke:none;stroke-width:1px;stroke-linecap:butt;stroke-linejoin:miter;stroke-opacity:1"
       d="m 627.01965,498.41871 -398.25855,5.69993 -59.95159,145.84505 c -5.16184,12.55747 -1.58377,22.80798 8.17981,22.57795 L 700.42121,660.21026 627.01965,498.41871 Z"
       id="path5067"
       inkscape:connector-curvature="0" />
    <path
       style="fill:#c8b7b7;fill-rule:evenodd;stroke:none;stroke-width:1px;stroke-linecap:butt;stroke-linejoin:miter;stroke-opacity:1"
       d="m 351.42679,878.08526 -2.17622,71.11892 c 11.39918,15.19186 46.29544,13.51437 52.22939,-2.29416 l 0,-68.82476 z"
       id="path5249"
       inkscape:connector-curvature="0"
       sodipodi:nodetypes="ccccc" />
    <path
       inkscape:connector-curvature="0"
       style="fill:#000000;fill-opacity:0.36942677;fill-rule:evenodd;stroke:none;stroke-width:1px;stroke-linecap:butt;stroke-linejoin:miter;stroke-opacity:1"
       d="m 351.4264,878.08513 -1.73357,56.70212 51.7865,-1.21983 0,-55.48229 -50.05293,0 z"
       id="path5272" />
    <g
       id="g5027"
       transform="matrix(1.0771762,0,0,1.1355506,-64.232096,-167.92025)">
      <path
         inkscape:connector-curvature="0"
         id="path5029"
         d="m 224.08759,619.60646 c 0,0 373.01816,-3.55254 373.01816,-3.55254 6.42967,-0.0617 13.18635,3.8238 15.18948,8.80312 0,0 118.79826,295.29827 118.79826,295.29827 5.35804,13.31862 1.07946,24.57223 -9.7696,24.8147 0,0 -635.899054,14.21017 -635.899054,14.21017 -11.401393,0.25481 -15.578373,-11.099 -9.550642,-25.00913 0,0 132.307696,-305.32551 132.307696,-305.32551 2.20919,-5.09822 9.28595,-9.17608 15.9057,-9.23908 0,0 0,0 0,0"
         style="opacity:1;fill:#c8b7b7;fill-opacity:1;stroke:none;stroke-width:2;stroke-miterlimit:4;stroke-dasharray:none;stroke-opacity:1" />
      <path
         inkscape:connector-curvature="0"
         id="path5031"
         d="m 350.35864,751.54425 c 0,0 120.41926,-1.76085 120.41926,-1.76085 6.37094,-0.0935 12.02046,4.80807 12.68195,11.10405 0,0 14.91233,141.9327 14.91233,141.9327 1.02377,9.74402 -4.70101,17.91152 -12.86442,18.08463 0,0 -154.51175,3.27848 -154.51175,3.27848 -8.26601,0.17573 -13.85826,-7.80838 -12.56445,-17.66868 0,0 18.81982,-143.42564 18.81982,-143.42564 0.83369,-6.35375 6.67399,-11.45066 13.10726,-11.54469 0,0 0,0 0,0"
         style="opacity:1;fill:#0000ff;fill-opacity:1;stroke:none;stroke-width:2;stroke-miterlimit:4;stroke-dasharray:none;stroke-opacity:1" />
      <path
         inkscape:connector-curvature="0"
         id="path5033"
         d="m 513.23467,749.16274 c 0,0 118.92524,-1.73898 118.92524,-1.73898 6.29209,-0.0916 13.18998,4.75966 15.51097,10.99114 0,0 52.24373,140.26737 52.24373,140.26737 3.58111,9.61466 0.0667,17.67205 -7.96752,17.84254 0,0 -152.05869,3.22614 -152.05869,3.22614 -8.13437,0.17199 -15.78694,-7.70332 -17.1224,-17.43163 0,0 -19.4561,-141.73079 -19.4561,-141.73079 -0.86322,-6.28813 3.57151,-11.33288 9.92477,-11.42579 0,0 0,0 0,0"
         style="opacity:1;fill:#2424b6;fill-opacity:1;stroke:none;stroke-width:2;stroke-miterlimit:4;stroke-dasharray:none;stroke-opacity:1" />
      <path
         inkscape:connector-curvature="0"
         id="path5035"
         d="m 364.11829,628.86218 c 0,0 96.1687,-0.95493 96.1687,-0.95493 5.09292,-0.0505 9.52486,3.08107 9.94501,7.08004 0,0 9.02883,85.93477 9.02883,85.93477 0.5903,5.6183 -3.89689,10.29046 -10.07409,10.37646 0,0 -116.73951,1.62381 -116.73951,1.62381 -6.23577,0.086 -10.64884,-4.48615 -9.90534,-10.15231 0,0 11.36275,-86.59562 11.36275,-86.59562 0.52831,-4.02627 5.08096,-7.26138 10.21365,-7.31222 0,0 0,0 0,0"
         style="opacity:1;fill:#0000ff;fill-opacity:1;stroke:none;stroke-width:2;stroke-miterlimit:4;stroke-dasharray:none;stroke-opacity:1" />
      <path
         inkscape:connector-curvature="0"
         id="path5037"
         d="m 494.23634,627.57019 c 0,0 95.21397,-0.94558 95.21397,-0.94558 5.04246,-0.0505 10.27306,3.05789 11.75101,7.02601 0,0 31.73136,85.19427 31.73136,85.19427 2.07261,5.56465 -1.14065,10.19176 -7.24369,10.27663 0,0 -115.335,1.60438 -115.335,1.60438 -6.16056,0.086 -11.75342,-4.44297 -12.52379,-10.05491 0,0 -11.78439,-85.84522 -11.78439,-85.84522 -0.54845,-3.99505 3.1089,-7.20529 8.19053,-7.25558 0,0 0,0 0,0"
         style="opacity:1;fill:#2424b6;fill-opacity:1;stroke:none;stroke-width:2;stroke-miterlimit:4;stroke-dasharray:none;stroke-opacity:1" />
      <path
         inkscape:connector-curvature="0"
         id="path5039"
         d="m 350.35864,751.54425 c 0,0 120.41926,-1.76085 120.41926,-1.76085 6.37094,-0.0935 12.02046,4.80807 12.68195,11.10405 0,0 14.91233,141.9327 14.91233,141.9327 1.02377,9.74402 -4.70101,17.91152 -12.86442,18.08463 0,0 -154.51175,3.27848 -154.51175,3.27848 -8.26601,0.17573 -13.85826,-7.80838 -12.56445,-17.66868 0,0 18.81982,-143.42564 18.81982,-143.42564 0.83369,-6.35375 6.67399,-11.45066 13.10726,-11.54469 0,0 0,0 0,0"
         style="opacity:1;fill:#2424b6;fill-opacity:1;stroke:none;stroke-width:2;stroke-miterlimit:4;stroke-dasharray:none;stroke-opacity:1" />
      <path
         inkscape:connector-curvature="0"
         id="path5041"
         d="m 364.11829,628.86218 c 0,0 96.1687,-0.95493 96.1687,-0.95493 5.09292,-0.0505 9.52486,3.08107 9.94501,7.08004 0,0 9.02883,85.93477 9.02883,85.93477 0.5903,5.6183 -3.89689,10.29046 -10.07409,10.37646 0,0 -116.73951,1.62381 -116.73951,1.62381 -6.23577,0.086 -10.64884,-4.48615 -9.90534,-10.15231 0,0 11.36275,-86.59562 11.36275,-86.59562 0.52831,-4.02627 5.08096,-7.26138 10.21365,-7.31222 0,0 0,0 0,0"
         style="opacity:1;fill:#2424b6;fill-opacity:1;stroke:none;stroke-width:2;stroke-miterlimit:4;stroke-dasharray:none;stroke-opacity:1" />
      <path
         inkscape:connector-curvature="0"
         id="path5043"
         d="m 185.42519,753.95604 c 0,0 121.94162,-1.78309 121.94162,-1.78309 6.45129,-0.0953 10.82027,4.85705 9.77967,11.21865 0,0 -23.49472,143.63185 -23.49472,143.63185 -1.61551,9.87619 -9.62147,18.15623 -17.91724,18.33233 0,0 -157.02465,3.33158 -157.02465,3.33158 -8.40086,0.1776 -11.86488,-7.91587 -7.85726,-17.91078 0,0 58.20221,-145.15527 58.20221,-145.15527 2.57429,-6.42011 9.85557,-11.57011 16.37037,-11.66527 0,0 0,0 0,0"
         style="opacity:1;fill:#2424b6;fill-opacity:1;stroke:none;stroke-width:2;stroke-miterlimit:4;stroke-dasharray:none;stroke-opacity:1" />
      <path
         inkscape:connector-curvature="0"
         id="path5045"
         d="m 232.68982,630.16706 c 0,0 97.13785,-0.96446 97.13785,-0.96446 5.14414,-0.0505 8.76105,3.10481 8.10182,7.13481 0,0 -14.17982,86.68648 -14.17982,86.68648 -0.92795,5.67289 -6.71987,10.39123 -12.97257,10.47816 0,0 -118.16986,1.64363 -118.16986,1.64363 -6.31234,0.0879 -9.51636,-4.53008 -7.22221,-10.25157 0,0 35.02727,-87.35725 35.02727,-87.35725 1.62709,-4.05804 7.09301,-7.3182 12.27752,-7.3698 0,0 0,0 0,0"
         style="opacity:1;fill:#2424b6;fill-opacity:1;stroke:none;stroke-width:2;stroke-miterlimit:4;stroke-dasharray:none;stroke-opacity:1" />
    </g>
  </g>
</svg>
