<?xml version="1.0" encoding="utf-8"?>
<!-- Svg Vector Icons : http://www.onlinewebfonts.com/icon -->
<!DOCTYPE svg PUBLIC "-//W3C//DTD SVG 1.1//EN" "http://www.w3.org/Graphics/SVG/1.1/DTD/svg11.dtd">
<svg version="1.1" xmlns="http://www.w3.org/2000/svg" xmlns:xlink="http://www.w3.org/1999/xlink" x="0px" y="0px" viewBox="0 0 1000 1000" enable-background="new 0 0 1000 1000" xml:space="preserve">
<metadata> Svg Vector Icons : http://www.onlinewebfonts.com/icon </metadata>
<g><g transform="translate(0.000000,511.000000) scale(0.100000,-0.100000)"><path d="M4650.3,4985.8C3024,4859.7,1569.7,3708.5,1072.9,2150c-157.5-492-184.2-681.1-184.2-1306.4c-2.4-593.8,12.1-732,123.6-1236.1c172.1-787.7,589-1633.6,1127-2297.7c472.6-581.7,1148.8-1165.8,1846.9-1592.4c247.2-152.7,865.3-472.6,971.9-506.6c65.5-19.4,683.5,283.6,1078.6,528.4C7839.9-3138.5,8913.6-1529.2,9093,322.5c38.8,402.3,14.5,1044.6-50.9,1357.3C8651.9,3526.7,7154,4845.2,5285.3,4988.2c-179.4,12.1-336.9,21.8-351.4,21.8C4921.7,5007.6,4793.3,4995.5,4650.3,4985.8z M2658,1340.5c945.2-162.4,1553.6-681.1,1757.2-1497.8c55.7-223,87.3-748.9,53.3-899.2l-21.8-94.5l-191.5,4.8c-802.3,19.4-1514.8,344.2-1895.4,860.4c-295.7,399.9-467.8,954.9-467.8,1502.7v191.5l273.9-14.5C2318.7,1384.1,2539.2,1359.9,2658,1340.5z M8089.5,1105.4c-24.2-479.9-135.7-870.1-361.1-1250.6c-118.7-203.6-458-528.4-683.5-656.9c-363.6-206-884.7-341.7-1313.7-341.7h-196.3l-16.9,92.1c-50.9,319.9,19.4,872.5,155.1,1199.7C5997.9,930.9,6805,1379.3,7924.8,1398.7l179.3,2.4L8089.5,1105.4z"/></g></g>
</svg>